<svg xmlns="http://www.w3.org/2000/svg" xmlns:xlink="http://www.w3.org/1999/xlink" width="375" zoomAndPan="magnify" viewBox="0 0 281.25 281.249989" height="375" preserveAspectRatio="xMidYMid meet" version="1.0"><defs><clipPath id="2efbe1b521"><path d="M 47.65625 89.769531 L 112.804688 89.769531 L 112.804688 162.710938 L 47.65625 162.710938 Z M 47.65625 89.769531 " clip-rule="nonzero"/></clipPath><clipPath id="91438f0efb"><path d="M 217.902344 84.476562 L 242.21875 84.476562 L 242.21875 108.863281 L 217.902344 108.863281 Z M 217.902344 84.476562 " clip-rule="nonzero"/></clipPath></defs><path fill="#1a477e" d="M 85.214844 137.097656 C 85.214844 137.097656 85.246094 137.070312 85.308594 137.023438 C 85.371094 136.976562 85.464844 136.90625 85.601562 136.820312 C 85.734375 136.738281 85.90625 136.640625 86.117188 136.542969 C 86.332031 136.445312 86.589844 136.339844 86.898438 136.265625 C 87.207031 136.191406 87.566406 136.128906 87.976562 136.140625 C 88.386719 136.148438 88.84375 136.21875 89.3125 136.40625 C 89.542969 136.496094 89.78125 136.613281 90.011719 136.753906 C 90.238281 136.894531 90.460938 137.066406 90.675781 137.253906 C 91.105469 137.628906 91.492188 138.089844 91.828125 138.609375 C 91.871094 138.671875 91.910156 138.734375 91.953125 138.796875 C 91.992188 138.863281 92.03125 138.929688 92.074219 138.996094 C 92.152344 139.128906 92.230469 139.261719 92.308594 139.394531 C 92.457031 139.664062 92.601562 139.945312 92.746094 140.230469 C 92.886719 140.519531 93.023438 140.8125 93.15625 141.113281 C 93.289062 141.417969 93.421875 141.726562 93.550781 142.042969 C 93.675781 142.355469 93.804688 142.679688 93.933594 143.007812 C 94.054688 143.335938 94.175781 143.667969 94.304688 144.007812 C 94.425781 144.347656 94.550781 144.691406 94.675781 145.039062 C 94.800781 145.386719 94.925781 145.742188 95.050781 146.101562 C 95.179688 146.453125 95.3125 146.8125 95.445312 147.179688 C 95.574219 147.542969 95.707031 147.90625 95.851562 148.273438 C 95.992188 148.636719 96.140625 149 96.292969 149.363281 C 96.445312 149.730469 96.605469 150.089844 96.773438 150.441406 C 96.945312 150.792969 97.125 151.136719 97.320312 151.464844 C 97.511719 151.792969 97.714844 152.101562 97.929688 152.378906 C 98.144531 152.65625 98.375 152.898438 98.605469 153.082031 C 98.835938 153.269531 99.0625 153.402344 99.289062 153.488281 C 99.523438 153.570312 99.765625 153.605469 100.054688 153.59375 C 100.195312 153.589844 100.347656 153.578125 100.511719 153.546875 C 100.550781 153.539062 100.589844 153.53125 100.632812 153.519531 L 100.695312 153.507812 C 100.710938 153.5 100.652344 153.519531 100.695312 153.507812 L 100.738281 153.492188 C 100.761719 153.488281 100.769531 153.484375 100.757812 153.488281 C 100.757812 153.488281 100.753906 153.488281 100.753906 153.488281 C 100.742188 153.492188 100.757812 153.488281 100.761719 153.484375 C 100.773438 153.480469 100.789062 153.476562 100.800781 153.46875 C 100.855469 153.441406 100.917969 153.398438 100.992188 153.324219 C 101.070312 153.253906 101.15625 153.148438 101.242188 153.019531 C 101.417969 152.761719 101.589844 152.402344 101.738281 152.007812 C 102.039062 151.207031 102.261719 150.261719 102.453125 149.28125 C 102.640625 148.296875 102.796875 147.265625 102.941406 146.210938 C 103.519531 141.976562 103.996094 137.367188 105.011719 132.652344 C 105.519531 130.292969 106.15625 127.90625 107.023438 125.539062 C 107.890625 123.179688 108.980469 120.839844 110.382812 118.640625 C 111.785156 116.445312 113.503906 114.398438 115.535156 112.679688 C 117.554688 110.953125 119.871094 109.566406 122.308594 108.546875 C 124.75 107.527344 127.3125 106.867188 129.875 106.484375 C 132.441406 106.101562 135.019531 105.980469 137.539062 106.035156 C 142.605469 106.136719 147.503906 106.894531 152.160156 107.851562 C 154.488281 108.335938 156.757812 108.875 158.964844 109.433594 C 161.175781 109.988281 163.328125 110.554688 165.414062 111.117188 C 167.503906 111.675781 169.535156 112.21875 171.5 112.722656 C 173.464844 113.234375 175.367188 113.707031 177.199219 114.128906 C 179.035156 114.546875 180.792969 114.925781 182.476562 115.242188 C 184.160156 115.558594 185.765625 115.820312 187.277344 116.035156 C 190.300781 116.453125 192.960938 116.660156 195.15625 116.734375 C 197.351562 116.816406 199.078125 116.753906 200.257812 116.707031 C 200.550781 116.691406 200.8125 116.679688 201.035156 116.671875 C 201.261719 116.652344 201.449219 116.640625 201.601562 116.632812 C 201.90625 116.613281 202.0625 116.601562 202.0625 116.601562 C 202.0625 116.601562 201.90625 116.621094 201.605469 116.660156 C 201.453125 116.679688 201.265625 116.703125 201.039062 116.730469 C 200.816406 116.753906 200.558594 116.78125 200.265625 116.8125 C 199.972656 116.84375 199.640625 116.875 199.28125 116.902344 C 198.917969 116.9375 198.523438 116.960938 198.097656 116.988281 C 197.667969 117.019531 197.207031 117.035156 196.71875 117.0625 C 196.226562 117.074219 195.707031 117.097656 195.152344 117.101562 C 194.046875 117.121094 192.824219 117.117188 191.496094 117.066406 C 190.160156 117.015625 188.726562 116.921875 187.191406 116.777344 C 184.125 116.488281 180.679688 115.992188 176.960938 115.28125 C 175.097656 114.925781 173.167969 114.523438 171.175781 114.085938 C 169.183594 113.648438 167.132812 113.171875 165.027344 112.683594 C 160.8125 111.714844 156.382812 110.667969 151.777344 109.851562 C 149.472656 109.4375 147.125 109.085938 144.742188 108.835938 C 142.363281 108.585938 139.945312 108.445312 137.523438 108.445312 C 135.09375 108.445312 132.667969 108.613281 130.285156 109.023438 C 127.902344 109.4375 125.5625 110.082031 123.378906 111.042969 C 121.191406 112.003906 119.164062 113.273438 117.398438 114.832031 C 115.628906 116.390625 114.121094 118.21875 112.886719 120.21875 C 111.652344 122.214844 110.679688 124.367188 109.90625 126.574219 C 109.136719 128.78125 108.550781 131.042969 108.089844 133.300781 C 107.628906 135.558594 107.289062 137.8125 107 140.042969 C 106.703125 142.273438 106.472656 144.476562 106.1875 146.648438 C 106.042969 147.734375 105.890625 148.8125 105.6875 149.894531 C 105.484375 150.972656 105.25 152.050781 104.84375 153.164062 C 104.636719 153.71875 104.386719 154.285156 104.007812 154.859375 C 103.816406 155.144531 103.59375 155.433594 103.316406 155.707031 C 103.039062 155.980469 102.703125 156.234375 102.316406 156.433594 C 102.222656 156.480469 102.121094 156.527344 102.023438 156.570312 C 101.96875 156.589844 101.929688 156.609375 101.859375 156.632812 L 101.765625 156.664062 L 101.699219 156.683594 L 101.570312 156.722656 L 101.453125 156.753906 C 101.378906 156.777344 101.296875 156.792969 101.222656 156.8125 C 100.910156 156.886719 100.582031 156.9375 100.242188 156.964844 C 99.570312 157.007812 98.847656 156.925781 98.1875 156.695312 C 97.523438 156.472656 96.9375 156.121094 96.449219 155.726562 C 95.964844 155.324219 95.574219 154.886719 95.238281 154.449219 C 94.90625 154.007812 94.628906 153.566406 94.382812 153.128906 C 94.140625 152.6875 93.9375 152.25 93.75 151.820312 C 93.5625 151.390625 93.398438 150.96875 93.246094 150.550781 C 93.09375 150.132812 92.960938 149.71875 92.835938 149.316406 C 92.714844 148.910156 92.59375 148.511719 92.488281 148.121094 C 92.378906 147.730469 92.28125 147.347656 92.183594 146.96875 C 92.089844 146.597656 92 146.226562 91.910156 145.863281 C 91.824219 145.5 91.742188 145.148438 91.660156 144.796875 C 91.5 144.109375 91.34375 143.445312 91.191406 142.808594 C 91.117188 142.496094 91.039062 142.1875 90.960938 141.890625 C 90.882812 141.589844 90.804688 141.304688 90.722656 141.023438 C 90.644531 140.746094 90.558594 140.476562 90.472656 140.214844 C 90.429688 140.089844 90.386719 139.960938 90.34375 139.835938 C 90.324219 139.777344 90.300781 139.714844 90.277344 139.660156 C 90.253906 139.597656 90.230469 139.539062 90.207031 139.480469 C 90.023438 139.027344 89.816406 138.625 89.574219 138.289062 C 89.328125 137.949219 89.058594 137.671875 88.765625 137.464844 C 88.472656 137.253906 88.160156 137.109375 87.851562 137.015625 C 87.542969 136.921875 87.238281 136.875 86.960938 136.863281 C 86.40625 136.835938 85.957031 136.910156 85.664062 136.976562 C 85.367188 137.042969 85.214844 137.097656 85.214844 137.097656 " fill-opacity="1" fill-rule="nonzero"/><path fill="#5bbceb" d="M 115.113281 110.558594 C 115.113281 110.558594 115.167969 110.457031 115.269531 110.261719 C 115.320312 110.164062 115.386719 110.042969 115.460938 109.898438 C 115.539062 109.753906 115.632812 109.589844 115.742188 109.402344 C 115.847656 109.214844 115.972656 109.011719 116.113281 108.785156 C 116.246094 108.558594 116.402344 108.316406 116.578125 108.054688 C 116.746094 107.789062 116.945312 107.519531 117.152344 107.222656 C 117.257812 107.078125 117.371094 106.933594 117.484375 106.78125 C 117.542969 106.703125 117.601562 106.625 117.660156 106.546875 C 117.722656 106.46875 117.785156 106.394531 117.847656 106.3125 C 118.351562 105.679688 118.953125 105.007812 119.652344 104.320312 C 120.351562 103.628906 121.160156 102.929688 122.074219 102.242188 C 122.988281 101.558594 124.019531 100.902344 125.15625 100.292969 C 126.289062 99.6875 127.53125 99.140625 128.863281 98.660156 C 130.195312 98.1875 131.617188 97.792969 133.105469 97.480469 C 134.59375 97.167969 136.152344 96.949219 137.757812 96.804688 C 138.5625 96.738281 139.375 96.6875 140.199219 96.660156 L 140.511719 96.648438 L 140.828125 96.644531 C 141.03125 96.640625 141.234375 96.636719 141.4375 96.636719 C 141.839844 96.621094 142.265625 96.628906 142.691406 96.632812 C 144.382812 96.640625 146.09375 96.742188 147.832031 96.890625 C 149.566406 97.039062 151.320312 97.261719 153.085938 97.53125 C 153.53125 97.597656 153.972656 97.667969 154.414062 97.742188 C 154.859375 97.8125 155.300781 97.894531 155.746094 97.972656 C 156.628906 98.128906 157.515625 98.300781 158.40625 98.484375 C 159.296875 98.660156 160.183594 98.851562 161.074219 99.042969 C 161.519531 99.140625 161.964844 99.242188 162.410156 99.339844 C 162.851562 99.441406 163.296875 99.546875 163.742188 99.648438 C 165.519531 100.070312 167.296875 100.503906 169.066406 100.9375 C 172.605469 101.832031 176.125 102.71875 179.585938 103.515625 C 180.453125 103.714844 181.320312 103.90625 182.179688 104.085938 C 183.039062 104.273438 183.894531 104.453125 184.746094 104.621094 C 186.449219 104.957031 188.136719 105.246094 189.796875 105.503906 C 193.121094 106.003906 196.351562 106.3125 199.425781 106.398438 C 200.957031 106.445312 202.457031 106.441406 203.902344 106.382812 C 205.34375 106.324219 206.742188 106.222656 208.078125 106.074219 C 209.410156 105.925781 210.691406 105.75 211.902344 105.535156 C 212.507812 105.4375 213.089844 105.308594 213.664062 105.199219 C 213.953125 105.144531 214.230469 105.074219 214.507812 105.015625 C 214.78125 104.953125 215.054688 104.894531 215.324219 104.832031 C 217.460938 104.324219 219.304688 103.769531 220.8125 103.261719 C 221.1875 103.140625 221.539062 103.007812 221.875 102.890625 C 222.210938 102.773438 222.527344 102.667969 222.8125 102.554688 C 223.105469 102.449219 223.371094 102.347656 223.617188 102.253906 C 223.742188 102.207031 223.855469 102.164062 223.96875 102.121094 C 224.078125 102.078125 224.183594 102.035156 224.28125 101.996094 C 225.078125 101.679688 225.503906 101.507812 225.503906 101.507812 C 225.503906 101.507812 225.109375 101.738281 224.367188 102.171875 C 223.621094 102.589844 222.515625 103.203125 221.066406 103.898438 C 220.703125 104.066406 220.320312 104.246094 219.914062 104.433594 C 219.507812 104.609375 219.078125 104.792969 218.632812 104.984375 C 218.1875 105.171875 217.710938 105.351562 217.222656 105.542969 C 216.734375 105.730469 216.21875 105.90625 215.691406 106.097656 C 213.5625 106.832031 211.105469 107.515625 208.367188 108.035156 C 208.023438 108.09375 207.679688 108.15625 207.328125 108.21875 C 206.976562 108.277344 206.621094 108.324219 206.261719 108.382812 C 206.085938 108.40625 205.90625 108.4375 205.722656 108.460938 C 205.542969 108.484375 205.359375 108.507812 205.175781 108.53125 C 204.8125 108.574219 204.441406 108.628906 204.066406 108.660156 C 202.574219 108.828125 201.019531 108.917969 199.421875 108.96875 C 196.226562 109.054688 192.855469 108.902344 189.402344 108.503906 C 187.675781 108.3125 185.929688 108.058594 184.175781 107.761719 C 183.292969 107.613281 182.414062 107.457031 181.527344 107.289062 C 180.648438 107.117188 179.761719 106.9375 178.875 106.75 C 175.332031 106.011719 171.777344 105.125 168.242188 104.253906 C 166.472656 103.804688 164.710938 103.363281 162.957031 102.941406 C 162.078125 102.730469 161.207031 102.519531 160.332031 102.3125 C 159.460938 102.109375 158.589844 101.90625 157.722656 101.71875 C 156.855469 101.527344 155.992188 101.34375 155.132812 101.171875 C 154.703125 101.085938 154.273438 100.996094 153.847656 100.914062 C 153.417969 100.832031 152.992188 100.75 152.5625 100.671875 C 150.859375 100.367188 149.175781 100.109375 147.511719 99.894531 C 147.304688 99.867188 147.097656 99.84375 146.890625 99.816406 C 146.679688 99.792969 146.476562 99.769531 146.269531 99.746094 C 146.0625 99.722656 145.859375 99.703125 145.652344 99.679688 C 145.445312 99.660156 145.242188 99.640625 145.035156 99.621094 C 144.832031 99.605469 144.628906 99.585938 144.421875 99.570312 C 144.21875 99.550781 144.015625 99.539062 143.816406 99.523438 C 143.410156 99.492188 143.003906 99.457031 142.613281 99.441406 C 142.214844 99.421875 141.824219 99.394531 141.410156 99.382812 C 141.207031 99.375 141.003906 99.371094 140.804688 99.363281 L 140.652344 99.355469 L 140.578125 99.355469 C 140.5625 99.355469 140.582031 99.355469 140.554688 99.355469 L 140.515625 99.351562 L 140.226562 99.351562 C 139.441406 99.335938 138.667969 99.34375 137.910156 99.363281 C 134.867188 99.449219 132.003906 99.84375 129.453125 100.539062 C 126.898438 101.226562 124.65625 102.21875 122.808594 103.332031 C 120.953125 104.449219 119.480469 105.671875 118.351562 106.773438 C 117.226562 107.875 116.429688 108.839844 115.902344 109.511719 C 115.773438 109.679688 115.65625 109.832031 115.558594 109.957031 C 115.460938 110.089844 115.378906 110.199219 115.316406 110.289062 C 115.183594 110.46875 115.113281 110.558594 115.113281 110.558594 " fill-opacity="1" fill-rule="nonzero"/><g clip-path="url(#2efbe1b521)"><path fill="#1a477e" d="M 112.683594 101.785156 C 112.625 101.066406 112.523438 100.304688 112.320312 99.519531 C 112.121094 98.738281 111.8125 97.914062 111.289062 97.144531 C 111.027344 96.757812 110.707031 96.386719 110.332031 96.066406 C 109.953125 95.738281 109.519531 95.460938 109.042969 95.253906 C 108.574219 95.042969 108.070312 94.898438 107.554688 94.820312 C 107.042969 94.738281 106.519531 94.714844 106.003906 94.734375 C 104.96875 94.773438 103.941406 94.976562 102.933594 95.269531 C 101.925781 95.554688 100.933594 95.9375 99.949219 96.375 C 99.453125 96.597656 98.960938 96.832031 98.472656 97.074219 C 97.96875 97.332031 97.523438 97.566406 97.066406 97.769531 C 96.136719 98.1875 95.164062 98.535156 94.15625 98.761719 C 93.144531 98.988281 92.101562 99.105469 91.039062 99.085938 C 89.972656 99.066406 88.890625 98.929688 87.804688 98.667969 C 86.714844 98.410156 85.625 98.039062 84.53125 97.585938 C 83.4375 97.136719 82.335938 96.609375 81.222656 96.039062 C 80.105469 95.472656 78.976562 94.859375 77.8125 94.242188 C 76.652344 93.621094 75.457031 92.996094 74.203125 92.410156 C 72.949219 91.824219 71.636719 91.277344 70.246094 90.828125 C 68.859375 90.382812 67.394531 90.035156 65.867188 89.882812 C 64.34375 89.730469 62.765625 89.769531 61.222656 90.023438 C 60.449219 90.152344 59.683594 90.332031 58.933594 90.554688 C 58.746094 90.609375 58.558594 90.667969 58.375 90.730469 L 58.234375 90.777344 C 58.246094 90.773438 58.144531 90.8125 58.132812 90.8125 L 58.070312 90.839844 L 57.820312 90.925781 C 57.734375 90.960938 57.660156 90.984375 57.570312 91.023438 L 56.976562 91.269531 C 56.878906 91.308594 56.792969 91.351562 56.695312 91.394531 C 55.226562 92.078125 53.839844 93.027344 52.664062 94.199219 C 51.488281 95.367188 50.53125 96.746094 49.804688 98.203125 C 49.445312 98.933594 49.136719 99.683594 48.875 100.441406 C 48.621094 101.203125 48.414062 101.972656 48.246094 102.746094 C 47.917969 104.292969 47.734375 105.851562 47.679688 107.394531 C 47.652344 108.167969 47.648438 108.9375 47.671875 109.703125 C 47.695312 110.46875 47.742188 111.234375 47.808594 111.996094 C 48.089844 115.03125 48.679688 117.996094 49.484375 120.875 C 50.285156 123.753906 51.3125 126.546875 52.484375 129.238281 C 52.628906 129.578125 52.78125 129.910156 52.929688 130.242188 C 53.082031 130.570312 53.226562 130.894531 53.378906 131.214844 C 53.675781 131.863281 53.976562 132.511719 54.273438 133.15625 C 54.875 134.4375 55.476562 135.714844 56.078125 136.980469 C 56.675781 138.246094 57.273438 139.5 57.863281 140.746094 C 58.449219 141.988281 59.035156 143.21875 59.582031 144.433594 C 59.855469 145.042969 60.117188 145.648438 60.371094 146.253906 C 60.621094 146.855469 60.859375 147.457031 61.085938 148.058594 C 61.53125 149.261719 61.914062 150.464844 62.242188 151.679688 C 62.574219 152.894531 62.84375 154.121094 63.089844 155.351562 C 63.148438 155.660156 63.207031 155.964844 63.265625 156.273438 C 63.308594 156.496094 63.324219 156.574219 63.375 156.792969 L 63.445312 157.085938 L 63.519531 157.355469 C 63.726562 158.078125 64.027344 158.777344 64.417969 159.433594 C 64.613281 159.761719 64.835938 160.082031 65.082031 160.378906 C 65.328125 160.683594 65.601562 160.964844 65.898438 161.226562 C 66.492188 161.746094 67.199219 162.164062 67.96875 162.421875 C 68.351562 162.550781 68.75 162.640625 69.152344 162.683594 C 69.550781 162.722656 69.953125 162.722656 70.34375 162.679688 C 71.128906 162.601562 71.859375 162.355469 72.507812 162.027344 C 73.152344 161.695312 73.722656 161.285156 74.222656 160.835938 C 74.71875 160.386719 75.152344 159.898438 75.535156 159.398438 C 76.300781 158.398438 76.878906 157.34375 77.355469 156.292969 C 77.824219 155.234375 78.195312 154.183594 78.492188 153.144531 C 78.796875 152.109375 79.035156 151.085938 79.222656 150.085938 C 79.308594 149.59375 79.394531 149.109375 79.476562 148.628906 C 79.519531 148.394531 79.5625 148.164062 79.605469 147.933594 C 79.652344 147.703125 79.695312 147.476562 79.742188 147.25 C 79.925781 146.34375 80.125 145.46875 80.34375 144.628906 C 80.777344 142.949219 81.292969 141.414062 81.917969 140.070312 C 82.539062 138.730469 83.285156 137.589844 84.164062 136.78125 C 84.605469 136.375 85.078125 136.0625 85.558594 135.839844 C 86.042969 135.617188 86.53125 135.488281 87 135.425781 C 87.46875 135.367188 87.910156 135.371094 88.316406 135.40625 C 88.722656 135.441406 89.09375 135.507812 89.421875 135.578125 C 90.078125 135.730469 90.574219 135.894531 90.90625 136.007812 C 91.234375 136.128906 91.40625 136.191406 91.40625 136.191406 C 91.40625 136.191406 91.246094 136.109375 90.929688 135.953125 C 90.609375 135.800781 90.136719 135.574219 89.484375 135.351562 C 88.835938 135.136719 87.992188 134.910156 86.960938 134.9375 C 86.445312 134.953125 85.886719 135.035156 85.316406 135.238281 C 84.753906 135.4375 84.179688 135.746094 83.644531 136.152344 C 83.113281 136.5625 82.605469 137.0625 82.144531 137.632812 C 81.917969 137.917969 81.695312 138.222656 81.480469 138.539062 C 81.269531 138.855469 81.0625 139.183594 80.867188 139.527344 C 80.472656 140.214844 80.113281 140.949219 79.78125 141.730469 C 79.441406 142.507812 79.136719 143.324219 78.84375 144.179688 C 78.550781 145.03125 78.28125 145.917969 78.027344 146.839844 C 77.964844 147.070312 77.902344 147.300781 77.839844 147.535156 C 77.777344 147.769531 77.71875 148.007812 77.65625 148.246094 C 77.542969 148.710938 77.425781 149.183594 77.308594 149.660156 C 77.0625 150.59375 76.78125 151.539062 76.441406 152.480469 C 76.109375 153.425781 75.710938 154.363281 75.242188 155.273438 C 74.765625 156.171875 74.21875 157.046875 73.5625 157.8125 C 73.238281 158.191406 72.886719 158.542969 72.511719 158.84375 C 72.136719 159.152344 71.734375 159.398438 71.328125 159.582031 C 70.507812 159.9375 69.671875 160 68.929688 159.703125 C 68.183594 159.414062 67.515625 158.769531 67.066406 157.917969 C 66.839844 157.496094 66.664062 157.023438 66.539062 156.527344 L 66.492188 156.335938 L 66.460938 156.167969 C 66.441406 156.078125 66.40625 155.839844 66.390625 155.753906 C 66.34375 155.433594 66.292969 155.113281 66.242188 154.792969 C 66.035156 153.5 65.796875 152.191406 65.492188 150.867188 C 65.34375 150.207031 65.164062 149.542969 64.980469 148.878906 C 64.792969 148.214844 64.582031 147.554688 64.363281 146.898438 C 64.140625 146.242188 63.902344 145.589844 63.652344 144.9375 C 63.40625 144.292969 63.144531 143.648438 62.878906 143.007812 C 61.820312 140.453125 60.660156 137.945312 59.519531 135.394531 C 58.949219 134.117188 58.375 132.835938 57.800781 131.546875 C 57.511719 130.90625 57.226562 130.261719 56.9375 129.613281 C 56.796875 129.289062 56.652344 128.964844 56.507812 128.640625 C 56.371094 128.324219 56.230469 128.007812 56.097656 127.6875 C 55.019531 125.132812 54.101562 122.492188 53.367188 119.804688 C 52.636719 117.117188 52.09375 114.371094 51.847656 111.628906 C 51.785156 110.945312 51.742188 110.261719 51.71875 109.578125 C 51.695312 108.898438 51.695312 108.21875 51.722656 107.542969 C 51.769531 106.195312 51.914062 104.863281 52.179688 103.585938 C 52.449219 102.304688 52.84375 101.078125 53.378906 99.957031 C 53.921875 98.835938 54.613281 97.824219 55.449219 96.96875 C 56.285156 96.113281 57.273438 95.421875 58.359375 94.894531 C 58.425781 94.863281 58.496094 94.824219 58.558594 94.792969 L 58.753906 94.710938 L 58.945312 94.625 C 59.011719 94.59375 59.101562 94.558594 59.183594 94.527344 L 59.429688 94.433594 L 59.492188 94.410156 C 59.496094 94.40625 59.496094 94.40625 59.5 94.40625 C 59.5 94.40625 59.507812 94.402344 59.511719 94.402344 L 59.621094 94.363281 C 59.769531 94.308594 59.917969 94.261719 60.066406 94.210938 C 60.660156 94.019531 61.261719 93.867188 61.867188 93.753906 C 64.292969 93.292969 66.773438 93.550781 69.191406 94.257812 C 70.402344 94.609375 71.59375 95.066406 72.777344 95.578125 C 73.957031 96.089844 75.125 96.648438 76.296875 97.21875 C 77.464844 97.789062 78.632812 98.367188 79.820312 98.917969 C 81.003906 99.46875 82.203125 99.988281 83.433594 100.433594 C 84.664062 100.875 85.921875 101.246094 87.207031 101.488281 C 87.574219 101.5625 87.949219 101.621094 88.324219 101.667969 C 87.5625 101.90625 86.769531 102.128906 85.960938 102.34375 C 85.539062 102.457031 85.105469 102.558594 84.675781 102.667969 C 84.246094 102.769531 83.8125 102.871094 83.378906 102.964844 C 82.507812 103.15625 81.632812 103.335938 80.765625 103.496094 C 79.90625 103.660156 79.050781 103.796875 78.222656 103.925781 C 77.390625 104.054688 76.589844 104.167969 75.824219 104.265625 C 75.0625 104.363281 74.335938 104.445312 73.671875 104.515625 C 72.332031 104.652344 71.214844 104.738281 70.429688 104.789062 C 69.644531 104.839844 69.195312 104.855469 69.195312 104.855469 C 69.195312 104.855469 69.644531 104.875 70.433594 104.882812 C 71.21875 104.886719 72.34375 104.886719 73.691406 104.847656 C 74.367188 104.828125 75.097656 104.800781 75.867188 104.761719 C 76.640625 104.722656 77.457031 104.667969 78.296875 104.601562 C 79.140625 104.535156 80.011719 104.457031 80.894531 104.359375 C 81.777344 104.265625 82.671875 104.148438 83.570312 104.019531 C 84.015625 103.957031 84.460938 103.886719 84.910156 103.816406 C 85.355469 103.738281 85.796875 103.667969 86.234375 103.585938 C 87.113281 103.421875 87.976562 103.246094 88.808594 103.054688 C 89.222656 102.957031 89.632812 102.863281 90.027344 102.757812 C 90.425781 102.652344 90.816406 102.558594 91.195312 102.445312 C 91.953125 102.234375 92.660156 102.007812 93.316406 101.792969 C 93.640625 101.679688 93.953125 101.570312 94.25 101.464844 C 94.542969 101.351562 94.824219 101.242188 95.085938 101.140625 C 95.144531 101.117188 95.207031 101.097656 95.265625 101.070312 C 96.269531 100.753906 97.21875 100.351562 98.101562 99.882812 C 98.625 99.609375 99.109375 99.3125 99.542969 99.058594 C 99.992188 98.800781 100.4375 98.554688 100.882812 98.324219 C 101.769531 97.859375 102.660156 97.457031 103.539062 97.136719 C 104.414062 96.820312 105.289062 96.589844 106.125 96.496094 C 106.960938 96.40625 107.761719 96.460938 108.453125 96.707031 C 109.148438 96.949219 109.730469 97.390625 110.179688 97.957031 C 110.628906 98.519531 110.953125 99.1875 111.191406 99.863281 C 111.429688 100.539062 111.585938 101.230469 111.695312 101.902344 C 111.800781 102.574219 111.867188 103.226562 111.90625 103.851562 C 111.980469 105.097656 111.953125 106.222656 111.910156 107.203125 C 111.863281 108.179688 111.792969 109.015625 111.726562 109.691406 C 111.65625 110.363281 111.597656 110.882812 111.550781 111.230469 C 111.507812 111.582031 111.484375 111.761719 111.484375 111.761719 C 111.484375 111.761719 111.527344 111.585938 111.613281 111.242188 C 111.695312 110.902344 111.820312 110.394531 111.960938 109.726562 C 112.101562 109.058594 112.257812 108.230469 112.402344 107.25 C 112.550781 106.269531 112.683594 105.128906 112.722656 103.835938 C 112.742188 103.191406 112.738281 102.507812 112.683594 101.785156 " fill-opacity="1" fill-rule="nonzero"/></g><g clip-path="url(#91438f0efb)"><path fill="#0cc0df" d="M 242.21875 96.628906 C 231.34375 97.332031 230.769531 97.90625 230.066406 108.78125 C 229.363281 97.90625 228.789062 97.332031 217.910156 96.628906 C 228.789062 95.925781 229.363281 95.351562 230.066406 84.476562 C 230.769531 95.351562 231.34375 95.925781 242.21875 96.628906 " fill-opacity="1" fill-rule="nonzero"/></g><path fill="#0cc0df" d="M 227.710938 110.558594 C 223.882812 110.804688 223.679688 111.007812 223.429688 114.839844 C 223.179688 111.007812 222.980469 110.804688 219.148438 110.558594 C 222.980469 110.3125 223.179688 110.109375 223.429688 106.277344 C 223.679688 110.109375 223.882812 110.3125 227.710938 110.558594 " fill-opacity="1" fill-rule="nonzero"/><path fill="#0cc0df" d="M 207.601562 100.015625 C 204.570312 100.210938 204.410156 100.371094 204.214844 103.402344 C 204.015625 100.371094 203.859375 100.210938 200.828125 100.015625 C 203.859375 99.820312 204.015625 99.660156 204.214844 96.628906 C 204.410156 99.660156 204.570312 99.820312 207.601562 100.015625 " fill-opacity="1" fill-rule="nonzero"/><path fill="#1a477e" d="M 118.308594 123.679688 C 118.722656 123.820312 119.070312 124.078125 119.355469 124.453125 C 119.644531 124.824219 119.789062 125.25 119.789062 125.726562 C 119.789062 126.210938 119.652344 126.621094 119.382812 126.964844 C 119.117188 127.304688 118.832031 127.539062 118.523438 127.660156 C 119.121094 127.832031 119.550781 128.121094 119.816406 128.519531 C 120.089844 128.921875 120.222656 129.351562 120.222656 129.8125 C 120.222656 130.335938 120.070312 130.828125 119.769531 131.292969 C 119.472656 131.753906 119.070312 132.070312 118.5625 132.230469 C 118.335938 132.300781 118.050781 132.351562 117.710938 132.375 C 117.367188 132.402344 116.953125 132.414062 116.464844 132.414062 L 112.734375 132.414062 L 112.734375 123.484375 L 116.464844 123.484375 C 116.894531 123.484375 117.253906 123.5 117.539062 123.523438 C 117.828125 123.542969 118.082031 123.597656 118.308594 123.679688 Z M 118.03125 126.015625 C 118.03125 125.785156 117.972656 125.589844 117.855469 125.4375 C 117.746094 125.28125 117.605469 125.167969 117.429688 125.089844 C 117.269531 125.027344 116.960938 124.992188 116.511719 124.992188 L 114.53125 124.992188 L 114.53125 127.039062 L 116.550781 127.039062 C 117.539062 127.039062 118.03125 126.699219 118.03125 126.015625 Z M 117.410156 130.855469 C 117.6875 130.8125 117.914062 130.699219 118.089844 130.507812 C 118.265625 130.324219 118.359375 130.074219 118.359375 129.765625 C 118.359375 129.417969 118.273438 129.15625 118.097656 128.984375 C 117.921875 128.804688 117.6875 128.6875 117.390625 128.636719 C 117.101562 128.578125 116.71875 128.546875 116.242188 128.546875 L 114.53125 128.546875 L 114.53125 130.90625 L 116.40625 130.90625 C 116.835938 130.90625 117.171875 130.890625 117.410156 130.855469 Z M 117.410156 130.855469 " fill-opacity="1" fill-rule="nonzero"/><path fill="#1a477e" d="M 128.359375 124.992188 L 123.53125 124.992188 L 123.53125 126.972656 L 128.023438 126.972656 L 128.023438 128.480469 L 123.53125 128.480469 L 123.53125 130.90625 L 128.523438 130.90625 L 128.523438 132.414062 L 121.734375 132.414062 L 121.734375 123.484375 L 128.359375 123.484375 Z M 128.359375 124.992188 " fill-opacity="1" fill-rule="nonzero"/><path fill="#1a477e" d="M 136.035156 123.765625 C 136.40625 123.925781 136.714844 124.207031 136.960938 124.605469 C 137.214844 125.007812 137.339844 125.464844 137.339844 125.988281 C 137.339844 126.652344 137.132812 127.210938 136.71875 127.667969 C 136.316406 128.121094 135.734375 128.390625 134.980469 128.480469 C 135.308594 128.707031 135.554688 128.894531 135.726562 129.039062 C 135.898438 129.183594 136.085938 129.386719 136.285156 129.648438 C 136.492188 129.914062 136.742188 130.289062 137.039062 130.769531 L 138.0625 132.414062 L 135.910156 132.414062 L 134.460938 130.238281 C 134.136719 129.753906 133.886719 129.414062 133.707031 129.214844 C 133.523438 129.007812 133.335938 128.871094 133.136719 128.800781 C 132.9375 128.722656 132.65625 128.683594 132.296875 128.683594 L 131.839844 128.683594 L 131.839844 132.414062 L 130.042969 132.414062 L 130.042969 123.484375 L 133.949219 123.484375 C 134.371094 123.484375 134.753906 123.503906 135.097656 123.542969 C 135.445312 123.578125 135.757812 123.648438 136.035156 123.765625 Z M 134.757812 127.15625 C 134.976562 127.09375 135.152344 126.972656 135.28125 126.789062 C 135.417969 126.605469 135.484375 126.375 135.484375 126.105469 C 135.484375 125.628906 135.28125 125.300781 134.875 125.117188 C 134.765625 125.066406 134.628906 125.035156 134.46875 125.023438 C 134.316406 125.003906 134.046875 124.992188 133.667969 124.992188 L 131.839844 124.992188 L 131.839844 127.261719 L 133.425781 127.261719 C 134.074219 127.261719 134.519531 127.230469 134.757812 127.15625 Z M 134.757812 127.15625 " fill-opacity="1" fill-rule="nonzero"/><path fill="#1a477e" d="M 143.15625 123.332031 C 144.179688 123.332031 145.023438 123.546875 145.679688 123.976562 C 146.335938 124.402344 146.761719 125.058594 146.964844 125.949219 L 145.167969 126.289062 C 145.03125 125.824219 144.78125 125.472656 144.421875 125.234375 C 144.0625 124.996094 143.644531 124.875 143.175781 124.875 C 142.695312 124.875 142.269531 124.972656 141.902344 125.15625 C 141.535156 125.339844 141.246094 125.601562 141.03125 125.949219 C 140.734375 126.421875 140.585938 127.050781 140.585938 127.84375 C 140.585938 128.785156 140.800781 129.546875 141.226562 130.132812 C 141.648438 130.71875 142.289062 131.011719 143.148438 131.011719 C 143.515625 131.011719 143.878906 130.945312 144.238281 130.808594 C 144.605469 130.671875 144.945312 130.488281 145.253906 130.257812 L 145.253906 129.128906 L 143.195312 129.128906 L 143.195312 127.621094 L 147.078125 127.621094 L 147.078125 131.175781 C 146.628906 131.597656 146.050781 131.929688 145.351562 132.179688 C 144.648438 132.433594 143.953125 132.558594 143.265625 132.558594 C 142.265625 132.558594 141.421875 132.351562 140.742188 131.9375 C 140.066406 131.519531 139.558594 130.960938 139.226562 130.257812 C 138.898438 129.558594 138.730469 128.777344 138.730469 127.921875 C 138.730469 127.089844 138.890625 126.332031 139.214844 125.640625 C 139.542969 124.945312 140.039062 124.390625 140.703125 123.96875 C 141.363281 123.542969 142.183594 123.332031 143.15625 123.332031 Z M 143.15625 123.332031 " fill-opacity="1" fill-rule="nonzero"/><path fill="#1a477e" d="M 151.855469 123.332031 C 152.847656 123.332031 153.65625 123.554688 154.28125 123.996094 C 154.914062 124.4375 155.242188 125.117188 155.277344 126.035156 L 153.472656 126.113281 C 153.40625 125.695312 153.25 125.375 153.007812 125.15625 C 152.761719 124.933594 152.371094 124.820312 151.828125 124.820312 C 151.453125 124.820312 151.109375 124.886719 150.792969 125.023438 C 150.476562 125.152344 150.320312 125.375 150.320312 125.699219 C 150.320312 125.976562 150.460938 126.195312 150.746094 126.355469 C 151.027344 126.515625 151.53125 126.679688 152.253906 126.847656 C 152.929688 127.007812 153.484375 127.179688 153.914062 127.359375 C 154.351562 127.535156 154.730469 127.820312 155.046875 128.21875 C 155.367188 128.613281 155.527344 129.144531 155.527344 129.8125 C 155.527344 130.15625 155.445312 130.519531 155.289062 130.90625 C 155.125 131.289062 154.867188 131.617188 154.515625 131.890625 C 154.25 132.105469 153.898438 132.269531 153.460938 132.382812 C 153.023438 132.5 152.515625 132.558594 151.945312 132.558594 C 150.828125 132.558594 149.972656 132.304688 149.375 131.804688 C 148.773438 131.300781 148.40625 130.535156 148.273438 129.503906 L 150.023438 129.339844 C 150.214844 130.480469 150.863281 131.050781 151.972656 131.050781 C 152.554688 131.050781 152.988281 130.929688 153.289062 130.683594 C 153.582031 130.4375 153.730469 130.148438 153.730469 129.8125 C 153.730469 129.578125 153.65625 129.386719 153.507812 129.242188 C 153.359375 129.105469 153.132812 128.980469 152.824219 128.875 C 152.515625 128.773438 152.023438 128.640625 151.355469 128.480469 C 150.523438 128.300781 149.855469 127.996094 149.355469 127.5625 C 148.851562 127.132812 148.601562 126.554688 148.601562 125.824219 C 148.601562 125.4375 148.699219 125.054688 148.902344 124.671875 C 149.097656 124.292969 149.441406 123.976562 149.925781 123.71875 C 150.414062 123.460938 151.058594 123.332031 151.855469 123.332031 Z M 151.855469 123.332031 " fill-opacity="1" fill-rule="nonzero"/><path fill="#1a477e" d="M 160.894531 123.332031 C 161.808594 123.332031 162.578125 123.554688 163.210938 123.996094 C 163.84375 124.441406 164.261719 125.09375 164.46875 125.949219 L 162.691406 126.375 C 162.578125 125.910156 162.359375 125.546875 162.023438 125.28125 C 161.695312 125.011719 161.289062 124.875 160.808594 124.875 C 160.105469 124.875 159.554688 125.125 159.164062 125.621094 C 158.777344 126.117188 158.585938 126.871094 158.585938 127.882812 C 158.585938 128.816406 158.742188 129.570312 159.058594 130.152344 C 159.378906 130.726562 159.953125 131.011719 160.777344 131.011719 C 161.304688 131.011719 161.730469 130.847656 162.054688 130.519531 C 162.375 130.1875 162.605469 129.722656 162.75 129.128906 L 164.496094 129.679688 C 164.257812 130.652344 163.816406 131.375 163.175781 131.851562 C 162.535156 132.324219 161.742188 132.558594 160.796875 132.558594 C 159.984375 132.558594 159.269531 132.371094 158.652344 131.996094 C 158.039062 131.625 157.566406 131.097656 157.230469 130.421875 C 156.894531 129.742188 156.730469 128.941406 156.730469 128.027344 C 156.730469 127.210938 156.867188 126.445312 157.144531 125.738281 C 157.425781 125.023438 157.882812 124.441406 158.507812 123.996094 C 159.128906 123.554688 159.925781 123.332031 160.894531 123.332031 Z M 160.894531 123.332031 " fill-opacity="1" fill-rule="nonzero"/><path fill="#1a477e" d="M 167.84375 127.003906 L 171.378906 127.003906 L 171.378906 123.484375 L 173.167969 123.484375 L 173.167969 132.414062 L 171.378906 132.414062 L 171.378906 128.507812 L 167.84375 128.507812 L 167.84375 132.414062 L 166.046875 132.414062 L 166.046875 123.484375 L 167.84375 123.484375 Z M 167.84375 127.003906 " fill-opacity="1" fill-rule="nonzero"/><path fill="#1a477e" d="M 181.671875 124.992188 L 176.839844 124.992188 L 176.839844 126.972656 L 181.332031 126.972656 L 181.332031 128.480469 L 176.839844 128.480469 L 176.839844 130.90625 L 181.835938 130.90625 L 181.835938 132.414062 L 175.042969 132.414062 L 175.042969 123.484375 L 181.671875 123.484375 Z M 181.671875 124.992188 " fill-opacity="1" fill-rule="nonzero"/><path fill="#1a477e" d="M 188.773438 129.445312 L 188.773438 123.484375 L 190.445312 123.484375 L 190.445312 132.414062 L 188.628906 132.414062 L 185.046875 126.585938 L 185.046875 132.414062 L 183.375 132.414062 L 183.375 123.484375 L 185.113281 123.484375 Z M 188.773438 129.445312 " fill-opacity="1" fill-rule="nonzero"/><path fill="#1a477e" d="M 194.148438 127.003906 L 197.683594 127.003906 L 197.683594 123.484375 L 199.472656 123.484375 L 199.472656 132.414062 L 197.683594 132.414062 L 197.683594 128.507812 L 194.148438 128.507812 L 194.148438 132.414062 L 192.351562 132.414062 L 192.351562 123.484375 L 194.148438 123.484375 Z M 194.148438 127.003906 " fill-opacity="1" fill-rule="nonzero"/><path fill="#1a477e" d="M 205.289062 123.332031 C 206.230469 123.332031 207.023438 123.53125 207.667969 123.929688 C 208.316406 124.332031 208.804688 124.882812 209.125 125.582031 C 209.453125 126.277344 209.621094 127.070312 209.621094 127.957031 C 209.621094 128.90625 209.445312 129.726562 209.097656 130.421875 C 208.753906 131.113281 208.257812 131.640625 207.609375 132.007812 C 206.964844 132.375 206.203125 132.558594 205.320312 132.558594 C 204.390625 132.558594 203.601562 132.371094 202.953125 131.988281 C 202.300781 131.609375 201.808594 131.078125 201.472656 130.394531 C 201.144531 129.703125 200.980469 128.90625 200.980469 127.996094 C 200.980469 127.058594 201.144531 126.238281 201.472656 125.535156 C 201.808594 124.832031 202.296875 124.292969 202.941406 123.910156 C 203.585938 123.523438 204.367188 123.332031 205.289062 123.332031 Z M 202.835938 127.949219 C 202.835938 128.644531 202.949219 129.222656 203.175781 129.679688 C 203.398438 130.136719 203.699219 130.476562 204.074219 130.691406 C 204.445312 130.90625 204.855469 131.011719 205.300781 131.011719 C 205.71875 131.011719 206.113281 130.921875 206.480469 130.730469 C 206.847656 130.539062 207.152344 130.214844 207.398438 129.753906 C 207.640625 129.292969 207.765625 128.679688 207.765625 127.921875 C 207.765625 127.03125 207.566406 126.304688 207.175781 125.738281 C 206.78125 125.164062 206.152344 124.875 205.289062 124.875 C 204.433594 124.875 203.808594 125.164062 203.417969 125.738281 C 203.03125 126.3125 202.835938 127.046875 202.835938 127.949219 Z M 202.835938 127.949219 " fill-opacity="1" fill-rule="nonzero"/><path fill="#1a477e" d="M 217.671875 124.992188 L 212.839844 124.992188 L 212.839844 126.972656 L 217.332031 126.972656 L 217.332031 128.480469 L 212.839844 128.480469 L 212.839844 130.90625 L 217.835938 130.90625 L 217.835938 132.414062 L 211.042969 132.414062 L 211.042969 123.484375 L 217.671875 123.484375 Z M 217.671875 124.992188 " fill-opacity="1" fill-rule="nonzero"/><path fill="#1a477e" d="M 221.183594 127.445312 L 224.832031 123.484375 L 227.25 123.484375 L 223.898438 126.964844 L 227.441406 132.414062 L 225.105469 132.414062 L 222.648438 128.21875 L 221.183594 129.71875 L 221.183594 132.414062 L 219.382812 132.414062 L 219.382812 123.484375 L 221.183594 123.484375 Z M 221.183594 127.445312 " fill-opacity="1" fill-rule="nonzero"/><path fill="#27aae1" d="M 118.359375 141.0625 C 118.96875 141.417969 119.429688 141.9375 119.738281 142.617188 C 120.054688 143.292969 120.214844 144.089844 120.214844 145.003906 C 120.214844 145.765625 120.101562 146.472656 119.875 147.128906 C 119.648438 147.789062 119.308594 148.308594 118.851562 148.6875 C 118.507812 148.972656 118.128906 149.183594 117.710938 149.324219 C 117.296875 149.464844 116.777344 149.535156 116.15625 149.535156 L 112.824219 149.535156 L 112.824219 140.609375 L 116.070312 140.609375 C 116.589844 140.609375 117.019531 140.640625 117.363281 140.707031 C 117.710938 140.761719 118.042969 140.882812 118.359375 141.0625 Z M 118.988281 144.996094 C 118.988281 144.085938 118.84375 143.390625 118.5625 142.898438 C 118.277344 142.402344 117.9375 142.074219 117.546875 141.902344 C 117.160156 141.738281 116.671875 141.652344 116.078125 141.652344 L 114.011719 141.652344 L 114.011719 148.492188 L 115.972656 148.492188 C 116.550781 148.492188 117.039062 148.425781 117.429688 148.289062 C 117.828125 148.148438 118.1875 147.820312 118.503906 147.304688 C 118.824219 146.789062 118.988281 146.019531 118.988281 144.996094 Z M 118.988281 144.996094 " fill-opacity="1" fill-rule="nonzero"/><path fill="#27aae1" d="M 128.273438 141.652344 L 123 141.652344 L 123 144.394531 L 127.933594 144.394531 L 127.933594 145.449219 L 123 145.449219 L 123 148.492188 L 128.464844 148.492188 L 128.464844 149.535156 L 121.808594 149.535156 L 121.808594 140.609375 L 128.273438 140.609375 Z M 128.273438 141.652344 " fill-opacity="1" fill-rule="nonzero"/><path fill="#27aae1" d="M 136.023438 147.613281 L 136.023438 140.609375 L 137.15625 140.609375 L 137.15625 149.535156 L 135.949219 149.535156 L 131.253906 142.523438 L 131.253906 149.535156 L 130.121094 149.535156 L 130.121094 140.609375 L 131.328125 140.609375 Z M 136.023438 147.613281 " fill-opacity="1" fill-rule="nonzero"/><path fill="#27aae1" d="M 145.496094 141.652344 L 142.539062 141.652344 L 142.539062 149.535156 L 141.351562 149.535156 L 141.351562 141.652344 L 138.402344 141.652344 L 138.402344 140.609375 L 145.496094 140.609375 Z M 145.496094 141.652344 " fill-opacity="1" fill-rule="nonzero"/><path fill="#27aae1" d="M 154.09375 149.535156 L 152.742188 149.535156 L 151.699219 146.820312 L 147.96875 146.820312 L 146.992188 149.535156 L 145.738281 149.535156 L 149.167969 140.609375 L 150.433594 140.609375 Z M 149.292969 143.246094 L 148.316406 145.863281 L 151.332031 145.863281 L 150.238281 142.925781 C 150.105469 142.578125 149.949219 142.117188 149.777344 141.535156 C 149.777344 141.582031 149.722656 141.792969 149.621094 142.175781 C 149.523438 142.546875 149.414062 142.90625 149.292969 143.246094 Z M 149.292969 143.246094 " fill-opacity="1" fill-rule="nonzero"/><path fill="#27aae1" d="M 156.175781 148.492188 L 160.582031 148.492188 L 160.582031 149.535156 L 154.996094 149.535156 L 154.996094 140.609375 L 156.175781 140.609375 Z M 156.175781 148.492188 " fill-opacity="1" fill-rule="nonzero"/><path fill="#27aae1" d="M 170.808594 141.140625 C 171.144531 141.390625 171.375 141.675781 171.503906 141.992188 C 171.632812 142.300781 171.699219 142.574219 171.699219 142.8125 C 171.699219 143.714844 171.277344 144.371094 170.441406 144.78125 C 171.015625 144.957031 171.4375 145.238281 171.707031 145.625 C 171.976562 146.003906 172.113281 146.460938 172.113281 146.996094 C 172.113281 147.402344 172.007812 147.8125 171.792969 148.230469 C 171.585938 148.652344 171.226562 148.984375 170.710938 149.226562 C 170.273438 149.433594 169.660156 149.535156 168.878906 149.535156 L 165.378906 149.535156 L 165.378906 140.609375 L 168.808594 140.609375 C 169.304688 140.609375 169.699219 140.65625 169.996094 140.742188 C 170.300781 140.828125 170.570312 140.960938 170.808594 141.140625 Z M 170.527344 143.023438 C 170.527344 142.484375 170.355469 142.121094 170.007812 141.933594 C 169.664062 141.746094 169.148438 141.652344 168.453125 141.652344 L 166.558594 141.652344 L 166.558594 144.359375 L 168.566406 144.359375 C 169.242188 144.359375 169.738281 144.25 170.054688 144.039062 C 170.371094 143.824219 170.527344 143.488281 170.527344 143.023438 Z M 170.105469 148.28125 C 170.386719 148.140625 170.585938 147.949219 170.703125 147.710938 C 170.824219 147.464844 170.886719 147.214844 170.886719 146.957031 C 170.886719 146.609375 170.800781 146.316406 170.625 146.078125 C 170.453125 145.832031 170.203125 145.65625 169.882812 145.546875 C 169.609375 145.457031 169.226562 145.410156 168.722656 145.410156 L 166.558594 145.410156 L 166.558594 148.492188 L 168.945312 148.492188 C 169.214844 148.492188 169.4375 148.476562 169.609375 148.445312 C 169.789062 148.40625 169.953125 148.351562 170.105469 148.28125 Z M 170.105469 148.28125 " fill-opacity="1" fill-rule="nonzero"/><path fill="#27aae1" d="M 173.875 148.289062 L 175.121094 148.289062 L 175.121094 149.535156 L 173.875 149.535156 Z M 173.875 148.289062 " fill-opacity="1" fill-rule="nonzero"/><path fill="#27aae1" d="M 179.929688 147.167969 C 180.105469 147.632812 180.257812 148.09375 180.371094 148.550781 C 180.519531 148.042969 180.683594 147.554688 180.855469 147.089844 L 183.261719 140.609375 L 184.46875 140.609375 L 180.980469 149.535156 L 179.753906 149.535156 L 176.304688 140.609375 L 177.589844 140.609375 Z M 179.929688 147.167969 " fill-opacity="1" fill-rule="nonzero"/></svg>