<svg xmlns="http://www.w3.org/2000/svg" xmlns:xlink="http://www.w3.org/1999/xlink" width="360" zoomAndPan="magnify" viewBox="0 0 270 127.500001" height="170" preserveAspectRatio="xMidYMid meet" version="1.0"><defs><clipPath id="b2cdbcef89"><path d="M 17.042969 22.105469 L 97 22.105469 L 97 111.640625 L 17.042969 111.640625 Z M 17.042969 22.105469 " clip-rule="nonzero"/></clipPath><clipPath id="8cc6cd3883"><path d="M 226.015625 15.609375 L 255.867188 15.609375 L 255.867188 45.542969 L 226.015625 45.542969 Z M 226.015625 15.609375 " clip-rule="nonzero"/></clipPath></defs><path fill="#1a477e" d="M 63.148438 80.203125 C 63.148438 80.203125 63.183594 80.167969 63.261719 80.109375 C 63.335938 80.050781 63.453125 79.964844 63.617188 79.859375 C 63.78125 79.757812 63.992188 79.640625 64.253906 79.519531 C 64.515625 79.402344 64.832031 79.269531 65.214844 79.179688 C 65.589844 79.085938 66.03125 79.011719 66.535156 79.023438 C 67.039062 79.035156 67.601562 79.121094 68.175781 79.351562 C 68.460938 79.464844 68.75 79.605469 69.03125 79.777344 C 69.316406 79.953125 69.585938 80.160156 69.851562 80.390625 C 70.375 80.855469 70.851562 81.421875 71.265625 82.058594 C 71.316406 82.132812 71.367188 82.210938 71.417969 82.289062 C 71.46875 82.367188 71.515625 82.453125 71.566406 82.53125 C 71.664062 82.691406 71.757812 82.855469 71.851562 83.019531 C 72.035156 83.351562 72.214844 83.695312 72.390625 84.046875 C 72.5625 84.398438 72.730469 84.761719 72.894531 85.132812 C 73.058594 85.503906 73.21875 85.882812 73.375 86.269531 C 73.535156 86.65625 73.691406 87.054688 73.847656 87.453125 C 73.996094 87.855469 74.148438 88.265625 74.300781 88.683594 C 74.453125 89.097656 74.605469 89.519531 74.761719 89.949219 C 74.914062 90.378906 75.066406 90.808594 75.21875 91.25 C 75.378906 91.683594 75.539062 92.125 75.703125 92.574219 C 75.859375 93.023438 76.027344 93.46875 76.203125 93.917969 C 76.375 94.363281 76.558594 94.8125 76.746094 95.257812 C 76.929688 95.707031 77.128906 96.148438 77.335938 96.578125 C 77.546875 97.011719 77.765625 97.433594 78.003906 97.835938 C 78.238281 98.238281 78.488281 98.621094 78.753906 98.960938 C 79.019531 99.296875 79.300781 99.59375 79.585938 99.820312 C 79.867188 100.050781 80.140625 100.214844 80.425781 100.320312 C 80.707031 100.417969 81.007812 100.464844 81.359375 100.449219 C 81.535156 100.445312 81.722656 100.429688 81.921875 100.390625 C 81.972656 100.382812 82.019531 100.371094 82.070312 100.359375 L 82.148438 100.34375 C 82.167969 100.335938 82.09375 100.355469 82.148438 100.34375 L 82.203125 100.324219 C 82.230469 100.320312 82.238281 100.316406 82.226562 100.320312 C 82.222656 100.320312 82.222656 100.320312 82.21875 100.320312 C 82.207031 100.324219 82.222656 100.320312 82.230469 100.316406 C 82.246094 100.308594 82.261719 100.304688 82.277344 100.292969 C 82.34375 100.261719 82.417969 100.207031 82.515625 100.121094 C 82.605469 100.03125 82.714844 99.902344 82.820312 99.742188 C 83.035156 99.425781 83.246094 98.988281 83.429688 98.5 C 83.796875 97.519531 84.070312 96.359375 84.304688 95.152344 C 84.535156 93.945312 84.730469 92.679688 84.90625 91.386719 C 85.617188 86.1875 86.199219 80.535156 87.449219 74.746094 C 88.070312 71.847656 88.851562 68.917969 89.917969 66.015625 C 90.980469 63.117188 92.316406 60.246094 94.039062 57.546875 C 95.757812 54.851562 97.871094 52.335938 100.363281 50.226562 C 102.84375 48.109375 105.683594 46.402344 108.679688 45.15625 C 111.675781 43.90625 114.820312 43.09375 117.964844 42.625 C 121.113281 42.152344 124.28125 42.003906 127.375 42.074219 C 133.589844 42.195312 139.605469 43.125 145.320312 44.300781 C 148.179688 44.894531 150.964844 45.558594 153.675781 46.242188 C 156.390625 46.921875 159.027344 47.621094 161.59375 48.3125 C 164.15625 48.996094 166.648438 49.664062 169.0625 50.28125 C 171.472656 50.90625 173.808594 51.488281 176.058594 52.007812 C 178.308594 52.519531 180.46875 52.988281 182.535156 53.375 C 184.601562 53.761719 186.570312 54.082031 188.429688 54.34375 C 192.140625 54.859375 195.40625 55.113281 198.097656 55.203125 C 200.792969 55.304688 202.914062 55.230469 204.359375 55.171875 C 204.71875 55.152344 205.039062 55.140625 205.316406 55.128906 C 205.59375 55.105469 205.824219 55.089844 206.011719 55.078125 C 206.382812 55.054688 206.578125 55.042969 206.578125 55.042969 C 206.578125 55.042969 206.382812 55.066406 206.011719 55.113281 C 205.824219 55.136719 205.597656 55.164062 205.320312 55.199219 C 205.046875 55.226562 204.730469 55.261719 204.371094 55.300781 C 204.007812 55.339844 203.605469 55.375 203.160156 55.410156 C 202.714844 55.453125 202.234375 55.484375 201.707031 55.519531 C 201.183594 55.558594 200.617188 55.574219 200.015625 55.605469 C 199.414062 55.621094 198.773438 55.652344 198.09375 55.65625 C 196.738281 55.679688 195.238281 55.675781 193.605469 55.609375 C 191.96875 55.546875 190.203125 55.433594 188.320312 55.257812 C 184.554688 54.902344 180.328125 54.292969 175.761719 53.417969 C 173.476562 52.984375 171.105469 52.492188 168.664062 51.953125 C 166.21875 51.414062 163.699219 50.832031 161.113281 50.230469 C 155.941406 49.042969 150.507812 47.757812 144.847656 46.753906 C 142.019531 46.25 139.140625 45.8125 136.214844 45.507812 C 133.292969 45.203125 130.328125 45.027344 127.355469 45.03125 C 124.375 45.027344 121.398438 45.234375 118.46875 45.738281 C 115.542969 46.246094 112.671875 47.039062 109.992188 48.21875 C 107.308594 49.394531 104.816406 50.957031 102.648438 52.871094 C 100.480469 54.78125 98.628906 57.027344 97.113281 59.480469 C 95.59375 61.929688 94.402344 64.578125 93.453125 67.285156 C 92.507812 69.992188 91.792969 72.769531 91.226562 75.539062 C 90.660156 78.308594 90.242188 81.078125 89.886719 83.816406 C 89.523438 86.550781 89.238281 89.257812 88.890625 91.921875 C 88.714844 93.257812 88.523438 94.582031 88.277344 95.90625 C 88.027344 97.230469 87.738281 98.558594 87.242188 99.921875 C 86.984375 100.601562 86.675781 101.300781 86.214844 102.003906 C 85.980469 102.355469 85.707031 102.707031 85.363281 103.042969 C 85.023438 103.378906 84.609375 103.691406 84.140625 103.9375 C 84.019531 103.996094 83.898438 104.050781 83.777344 104.101562 C 83.710938 104.128906 83.660156 104.148438 83.578125 104.179688 L 83.464844 104.21875 L 83.378906 104.246094 L 83.21875 104.292969 L 83.082031 104.332031 C 82.984375 104.355469 82.886719 104.378906 82.792969 104.402344 C 82.410156 104.492188 82.007812 104.554688 81.59375 104.589844 C 80.765625 104.640625 79.882812 104.539062 79.070312 104.257812 C 78.257812 103.984375 77.535156 103.554688 76.9375 103.066406 C 76.339844 102.574219 75.859375 102.039062 75.453125 101.5 C 75.042969 100.960938 74.703125 100.417969 74.398438 99.878906 C 74.101562 99.335938 73.851562 98.800781 73.621094 98.273438 C 73.394531 97.746094 73.191406 97.226562 73.003906 96.714844 C 72.820312 96.199219 72.65625 95.691406 72.5 95.199219 C 72.351562 94.699219 72.207031 94.214844 72.070312 93.734375 C 71.9375 93.253906 71.820312 92.78125 71.703125 92.320312 C 71.585938 91.859375 71.476562 91.40625 71.363281 90.960938 C 71.257812 90.515625 71.160156 90.082031 71.058594 89.652344 C 70.859375 88.808594 70.667969 87.992188 70.484375 87.210938 C 70.390625 86.824219 70.292969 86.449219 70.199219 86.082031 C 70.101562 85.714844 70.007812 85.363281 69.90625 85.019531 C 69.808594 84.679688 69.707031 84.347656 69.601562 84.027344 C 69.546875 83.871094 69.496094 83.714844 69.441406 83.5625 C 69.414062 83.488281 69.386719 83.414062 69.363281 83.34375 C 69.332031 83.269531 69.300781 83.195312 69.277344 83.125 C 69.050781 82.570312 68.792969 82.074219 68.496094 81.664062 C 68.195312 81.25 67.863281 80.90625 67.503906 80.648438 C 67.144531 80.394531 66.761719 80.214844 66.382812 80.097656 C 66.003906 79.984375 65.632812 79.929688 65.292969 79.914062 C 64.609375 79.878906 64.058594 79.96875 63.695312 80.054688 C 63.332031 80.132812 63.148438 80.203125 63.148438 80.203125 " fill-opacity="1" fill-rule="nonzero"/><path fill="#5bbceb" d="M 99.847656 47.625 C 99.847656 47.625 99.914062 47.5 100.039062 47.261719 C 100.101562 47.140625 100.179688 46.992188 100.273438 46.8125 C 100.371094 46.636719 100.484375 46.4375 100.617188 46.207031 C 100.746094 45.972656 100.898438 45.726562 101.070312 45.449219 C 101.238281 45.167969 101.429688 44.871094 101.644531 44.550781 C 101.847656 44.226562 102.09375 43.894531 102.347656 43.53125 C 102.476562 43.351562 102.617188 43.171875 102.757812 42.984375 C 102.828125 42.890625 102.902344 42.796875 102.972656 42.699219 C 103.050781 42.605469 103.125 42.511719 103.203125 42.414062 C 103.820312 41.632812 104.558594 40.8125 105.417969 39.964844 C 106.273438 39.117188 107.269531 38.257812 108.390625 37.417969 C 109.511719 36.574219 110.777344 35.773438 112.171875 35.023438 C 113.5625 34.277344 115.089844 33.609375 116.722656 33.019531 C 118.359375 32.4375 120.105469 31.957031 121.929688 31.570312 C 123.757812 31.183594 125.671875 30.917969 127.640625 30.742188 C 128.628906 30.65625 129.628906 30.59375 130.636719 30.566406 L 131.019531 30.550781 L 131.414062 30.542969 C 131.660156 30.539062 131.910156 30.535156 132.160156 30.53125 C 132.652344 30.519531 133.175781 30.527344 133.699219 30.53125 C 135.777344 30.542969 137.871094 30.664062 140.007812 30.847656 C 142.140625 31.027344 144.292969 31.304688 146.460938 31.632812 C 147 31.714844 147.542969 31.800781 148.085938 31.894531 C 148.632812 31.980469 149.175781 32.078125 149.71875 32.171875 C 150.808594 32.367188 151.898438 32.578125 152.988281 32.800781 C 154.078125 33.019531 155.171875 33.25 156.265625 33.488281 C 156.808594 33.609375 157.355469 33.730469 157.902344 33.855469 C 158.445312 33.976562 158.992188 34.105469 159.539062 34.234375 C 161.71875 34.75 163.898438 35.28125 166.070312 35.816406 C 170.414062 36.910156 174.734375 38 178.988281 38.980469 C 180.050781 39.222656 181.113281 39.457031 182.167969 39.679688 C 183.222656 39.910156 184.273438 40.128906 185.320312 40.335938 C 187.410156 40.746094 189.480469 41.101562 191.519531 41.417969 C 195.601562 42.035156 199.566406 42.410156 203.339844 42.515625 C 205.222656 42.578125 207.058594 42.570312 208.832031 42.496094 C 210.605469 42.425781 212.320312 42.300781 213.957031 42.121094 C 215.59375 41.9375 217.167969 41.722656 218.652344 41.457031 C 219.398438 41.335938 220.113281 41.179688 220.816406 41.042969 C 221.167969 40.976562 221.511719 40.890625 221.851562 40.816406 C 222.191406 40.746094 222.523438 40.671875 222.855469 40.597656 C 225.476562 39.96875 227.738281 39.292969 229.589844 38.664062 C 230.050781 38.515625 230.484375 38.355469 230.898438 38.210938 C 231.308594 38.070312 231.695312 37.9375 232.046875 37.800781 C 232.402344 37.667969 232.734375 37.546875 233.035156 37.433594 C 233.1875 37.371094 233.328125 37.320312 233.464844 37.269531 C 233.601562 37.214844 233.730469 37.164062 233.851562 37.113281 C 234.828125 36.722656 235.347656 36.515625 235.347656 36.515625 C 235.347656 36.515625 234.863281 36.796875 233.953125 37.328125 C 233.039062 37.84375 231.683594 38.597656 229.90625 39.449219 C 229.457031 39.65625 228.984375 39.875 228.488281 40.105469 C 227.988281 40.320312 227.464844 40.546875 226.914062 40.78125 C 226.371094 41.011719 225.785156 41.230469 225.1875 41.46875 C 224.585938 41.695312 223.953125 41.914062 223.304688 42.148438 C 220.691406 43.046875 217.675781 43.886719 214.316406 44.523438 C 213.894531 44.597656 213.46875 44.675781 213.039062 44.753906 C 212.609375 44.824219 212.175781 44.882812 211.730469 44.953125 C 211.511719 44.984375 211.292969 45.019531 211.070312 45.050781 C 210.847656 45.078125 210.625 45.105469 210.398438 45.136719 C 209.949219 45.1875 209.496094 45.253906 209.035156 45.296875 C 207.203125 45.5 205.296875 45.613281 203.335938 45.671875 C 199.414062 45.777344 195.273438 45.589844 191.035156 45.101562 C 188.917969 44.867188 186.773438 44.554688 184.617188 44.191406 C 183.539062 44.007812 182.457031 43.816406 181.371094 43.609375 C 180.289062 43.402344 179.203125 43.179688 178.117188 42.949219 C 173.765625 42.042969 169.402344 40.953125 165.0625 39.882812 C 162.890625 39.335938 160.730469 38.792969 158.574219 38.273438 C 157.496094 38.015625 156.425781 37.757812 155.355469 37.503906 C 154.28125 37.25 153.214844 37.003906 152.148438 36.769531 C 151.085938 36.535156 150.027344 36.316406 148.96875 36.101562 C 148.441406 35.996094 147.914062 35.882812 147.390625 35.785156 C 146.867188 35.6875 146.339844 35.582031 145.816406 35.492188 C 143.726562 35.113281 141.65625 34.796875 139.613281 34.53125 C 139.359375 34.5 139.105469 34.46875 138.851562 34.4375 C 138.597656 34.40625 138.34375 34.382812 138.089844 34.351562 C 137.835938 34.324219 137.585938 34.296875 137.332031 34.273438 C 137.078125 34.246094 136.828125 34.222656 136.578125 34.199219 C 136.324219 34.179688 136.074219 34.15625 135.824219 34.136719 C 135.574219 34.113281 135.324219 34.101562 135.078125 34.078125 C 134.578125 34.039062 134.082031 34 133.601562 33.976562 C 133.109375 33.953125 132.632812 33.917969 132.125 33.90625 C 131.878906 33.898438 131.628906 33.890625 131.382812 33.878906 L 131.195312 33.875 L 131.105469 33.871094 C 131.082031 33.871094 131.105469 33.871094 131.074219 33.871094 L 131.03125 33.867188 L 130.671875 33.867188 C 129.710938 33.851562 128.761719 33.859375 127.828125 33.878906 C 124.089844 33.988281 120.582031 34.472656 117.449219 35.328125 C 114.3125 36.167969 111.5625 37.386719 109.289062 38.753906 C 107.011719 40.125 105.203125 41.625 103.824219 42.976562 C 102.4375 44.328125 101.460938 45.515625 100.816406 46.339844 C 100.65625 46.546875 100.515625 46.730469 100.394531 46.886719 C 100.273438 47.050781 100.171875 47.183594 100.09375 47.292969 C 99.929688 47.511719 99.847656 47.625 99.847656 47.625 " fill-opacity="1" fill-rule="nonzero"/><g clip-path="url(#b2cdbcef89)"><path fill="#1a477e" d="M 96.863281 36.855469 C 96.792969 35.972656 96.667969 35.039062 96.421875 34.074219 C 96.171875 33.113281 95.792969 32.105469 95.152344 31.160156 C 94.832031 30.683594 94.4375 30.230469 93.976562 29.832031 C 93.515625 29.433594 92.976562 29.09375 92.398438 28.835938 C 91.820312 28.578125 91.199219 28.402344 90.566406 28.304688 C 89.9375 28.203125 89.296875 28.175781 88.664062 28.199219 C 87.390625 28.25 86.132812 28.5 84.894531 28.855469 C 83.660156 29.207031 82.441406 29.679688 81.230469 30.214844 C 80.621094 30.484375 80.019531 30.773438 79.417969 31.074219 C 78.800781 31.386719 78.253906 31.675781 77.695312 31.925781 C 76.550781 32.4375 75.359375 32.863281 74.121094 33.144531 C 72.882812 33.421875 71.597656 33.566406 70.292969 33.542969 C 68.984375 33.519531 67.660156 33.351562 66.324219 33.03125 C 64.988281 32.710938 63.648438 32.253906 62.304688 31.699219 C 60.960938 31.148438 59.609375 30.5 58.242188 29.804688 C 56.875 29.105469 55.488281 28.355469 54.058594 27.59375 C 52.636719 26.832031 51.167969 26.066406 49.628906 25.347656 C 48.089844 24.628906 46.480469 23.957031 44.773438 23.40625 C 43.070312 22.855469 41.269531 22.429688 39.394531 22.246094 C 37.523438 22.054688 35.589844 22.105469 33.695312 22.417969 C 32.746094 22.574219 31.804688 22.792969 30.886719 23.066406 C 30.65625 23.136719 30.425781 23.210938 30.199219 23.285156 L 30.027344 23.34375 C 30.039062 23.335938 29.917969 23.382812 29.902344 23.386719 L 29.824219 23.417969 L 29.519531 23.527344 C 29.414062 23.566406 29.324219 23.597656 29.210938 23.640625 L 28.480469 23.945312 C 28.367188 23.996094 28.257812 24.046875 28.140625 24.101562 C 26.335938 24.9375 24.632812 26.101562 23.191406 27.542969 C 21.746094 28.976562 20.570312 30.667969 19.679688 32.460938 C 19.238281 33.351562 18.859375 34.273438 18.539062 35.207031 C 18.226562 36.140625 17.972656 37.085938 17.769531 38.035156 C 17.363281 39.933594 17.136719 41.84375 17.074219 43.738281 C 17.035156 44.6875 17.035156 45.632812 17.058594 46.578125 C 17.089844 47.515625 17.148438 48.453125 17.230469 49.386719 C 17.574219 53.113281 18.300781 56.753906 19.289062 60.289062 C 20.273438 63.824219 21.527344 67.246094 22.96875 70.554688 C 23.148438 70.96875 23.335938 71.378906 23.519531 71.785156 C 23.703125 72.1875 23.882812 72.585938 24.066406 72.980469 C 24.429688 73.777344 24.800781 74.570312 25.164062 75.363281 C 25.90625 76.9375 26.644531 78.503906 27.378906 80.058594 C 28.113281 81.609375 28.847656 83.148438 29.574219 84.679688 C 30.289062 86.207031 31.011719 87.714844 31.679688 89.207031 C 32.015625 89.953125 32.339844 90.699219 32.648438 91.4375 C 32.957031 92.179688 33.253906 92.917969 33.527344 93.65625 C 34.074219 95.132812 34.542969 96.609375 34.949219 98.101562 C 35.355469 99.59375 35.6875 101.097656 35.984375 102.609375 C 36.058594 102.984375 36.132812 103.359375 36.203125 103.738281 C 36.257812 104.011719 36.273438 104.109375 36.335938 104.378906 L 36.421875 104.738281 L 36.515625 105.070312 C 36.769531 105.953125 37.136719 106.8125 37.621094 107.617188 C 37.859375 108.023438 38.128906 108.414062 38.433594 108.78125 C 38.734375 109.152344 39.070312 109.5 39.4375 109.816406 C 40.164062 110.457031 41.03125 110.972656 41.976562 111.285156 C 42.445312 111.441406 42.933594 111.554688 43.425781 111.605469 C 43.917969 111.65625 44.410156 111.652344 44.890625 111.601562 C 45.855469 111.507812 46.753906 111.203125 47.550781 110.800781 C 48.339844 110.394531 49.039062 109.890625 49.652344 109.339844 C 50.261719 108.785156 50.792969 108.191406 51.265625 107.578125 C 52.203125 106.347656 52.914062 105.054688 53.5 103.761719 C 54.074219 102.464844 54.527344 101.171875 54.894531 99.898438 C 55.265625 98.625 55.558594 97.371094 55.789062 96.144531 C 55.894531 95.539062 56 94.941406 56.101562 94.351562 C 56.15625 94.070312 56.210938 93.785156 56.261719 93.503906 C 56.316406 93.21875 56.371094 92.941406 56.425781 92.664062 C 56.652344 91.550781 56.898438 90.476562 57.167969 89.445312 C 57.699219 87.386719 58.332031 85.5 59.097656 83.851562 C 59.859375 82.207031 60.777344 80.804688 61.859375 79.808594 C 62.398438 79.316406 62.976562 78.929688 63.570312 78.65625 C 64.160156 78.382812 64.761719 78.226562 65.335938 78.148438 C 65.910156 78.074219 66.457031 78.082031 66.953125 78.125 C 67.453125 78.167969 67.90625 78.246094 68.308594 78.335938 C 69.117188 78.519531 69.722656 78.726562 70.128906 78.863281 C 70.535156 79.007812 70.742188 79.089844 70.742188 79.089844 C 70.742188 79.089844 70.546875 78.984375 70.160156 78.796875 C 69.769531 78.609375 69.1875 78.332031 68.386719 78.058594 C 67.589844 77.792969 66.558594 77.515625 65.289062 77.546875 C 64.65625 77.570312 63.96875 77.667969 63.273438 77.917969 C 62.578125 78.160156 61.875 78.542969 61.21875 79.042969 C 60.566406 79.542969 59.941406 80.15625 59.378906 80.859375 C 59.097656 81.210938 58.824219 81.582031 58.5625 81.96875 C 58.300781 82.355469 58.050781 82.761719 57.8125 83.183594 C 57.328125 84.027344 56.886719 84.929688 56.476562 85.886719 C 56.0625 86.839844 55.683594 87.84375 55.324219 88.890625 C 54.964844 89.9375 54.636719 91.03125 54.324219 92.160156 C 54.246094 92.441406 54.167969 92.726562 54.09375 93.011719 C 54.019531 93.300781 53.945312 93.589844 53.871094 93.882812 C 53.726562 94.453125 53.585938 95.035156 53.441406 95.621094 C 53.136719 96.765625 52.792969 97.929688 52.378906 99.085938 C 51.964844 100.246094 51.480469 101.394531 50.902344 102.507812 C 50.316406 103.613281 49.648438 104.6875 48.84375 105.625 C 48.445312 106.09375 48.011719 106.523438 47.550781 106.894531 C 47.09375 107.269531 46.601562 107.574219 46.097656 107.800781 C 45.09375 108.238281 44.066406 108.3125 43.15625 107.949219 C 42.238281 107.59375 41.421875 106.804688 40.867188 105.757812 C 40.589844 105.238281 40.375 104.660156 40.222656 104.046875 L 40.167969 103.816406 L 40.125 103.609375 C 40.101562 103.5 40.054688 103.207031 40.039062 103.101562 C 39.980469 102.707031 39.917969 102.3125 39.859375 101.917969 C 39.601562 100.335938 39.3125 98.726562 38.9375 97.105469 C 38.75 96.292969 38.535156 95.476562 38.308594 94.660156 C 38.078125 93.847656 37.820312 93.035156 37.550781 92.230469 C 37.277344 91.421875 36.984375 90.625 36.679688 89.824219 C 36.375 89.035156 36.058594 88.242188 35.730469 87.457031 C 34.429688 84.320312 33.007812 81.238281 31.601562 78.109375 C 30.902344 76.542969 30.199219 74.972656 29.496094 73.386719 C 29.144531 72.597656 28.789062 71.808594 28.4375 71.011719 C 28.261719 70.617188 28.085938 70.21875 27.910156 69.816406 C 27.738281 69.429688 27.566406 69.042969 27.40625 68.648438 C 26.078125 65.515625 24.957031 62.273438 24.050781 58.972656 C 23.15625 55.671875 22.488281 52.304688 22.1875 48.9375 C 22.113281 48.101562 22.054688 47.257812 22.03125 46.421875 C 22.003906 45.585938 22.003906 44.75 22.03125 43.921875 C 22.09375 42.269531 22.269531 40.632812 22.597656 39.066406 C 22.925781 37.496094 23.410156 35.988281 24.070312 34.609375 C 24.734375 33.234375 25.582031 31.992188 26.609375 30.941406 C 27.636719 29.890625 28.847656 29.042969 30.179688 28.394531 C 30.261719 28.355469 30.347656 28.3125 30.425781 28.273438 L 30.664062 28.167969 L 30.898438 28.066406 C 30.984375 28.027344 31.09375 27.984375 31.191406 27.949219 L 31.492188 27.828125 L 31.570312 27.800781 C 31.578125 27.800781 31.578125 27.800781 31.578125 27.796875 C 31.582031 27.796875 31.589844 27.792969 31.59375 27.789062 L 31.730469 27.742188 C 31.910156 27.675781 32.09375 27.617188 32.277344 27.554688 C 33.007812 27.320312 33.746094 27.136719 34.488281 26.996094 C 37.460938 26.433594 40.511719 26.746094 43.476562 27.617188 C 44.964844 28.046875 46.429688 28.609375 47.878906 29.234375 C 49.328125 29.867188 50.761719 30.550781 52.199219 31.246094 C 53.632812 31.945312 55.066406 32.660156 56.523438 33.335938 C 57.976562 34.011719 59.449219 34.652344 60.960938 35.195312 C 62.46875 35.738281 64.015625 36.191406 65.589844 36.492188 C 66.042969 36.582031 66.5 36.652344 66.960938 36.710938 C 66.027344 37.003906 65.054688 37.273438 64.0625 37.539062 C 63.542969 37.679688 63.015625 37.804688 62.484375 37.9375 C 61.957031 38.0625 61.425781 38.183594 60.890625 38.304688 C 59.820312 38.539062 58.746094 38.761719 57.6875 38.953125 C 56.628906 39.15625 55.578125 39.324219 54.5625 39.484375 C 53.542969 39.640625 52.558594 39.78125 51.621094 39.898438 C 50.683594 40.019531 49.792969 40.117188 48.976562 40.203125 C 47.332031 40.375 45.960938 40.480469 45 40.542969 C 44.035156 40.605469 43.484375 40.625 43.484375 40.625 C 43.484375 40.625 44.035156 40.644531 45.003906 40.65625 C 45.964844 40.664062 47.34375 40.664062 49 40.613281 C 49.828125 40.589844 50.726562 40.558594 51.671875 40.507812 C 52.621094 40.460938 53.621094 40.390625 54.65625 40.3125 C 55.691406 40.226562 56.757812 40.136719 57.84375 40.015625 C 58.925781 39.898438 60.023438 39.753906 61.125 39.601562 C 61.675781 39.519531 62.222656 39.433594 62.769531 39.347656 C 63.316406 39.253906 63.863281 39.167969 64.398438 39.0625 C 65.476562 38.863281 66.535156 38.648438 67.554688 38.410156 C 68.0625 38.292969 68.566406 38.179688 69.054688 38.050781 C 69.542969 37.917969 70.023438 37.804688 70.484375 37.664062 C 71.417969 37.40625 72.285156 37.128906 73.089844 36.863281 C 73.488281 36.722656 73.871094 36.589844 74.234375 36.460938 C 74.597656 36.320312 74.9375 36.191406 75.261719 36.066406 C 75.335938 36.035156 75.410156 36.007812 75.484375 35.980469 C 76.714844 35.589844 77.878906 35.097656 78.964844 34.519531 C 79.605469 34.1875 80.203125 33.820312 80.734375 33.507812 C 81.285156 33.191406 81.828125 32.890625 82.378906 32.605469 C 83.46875 32.035156 84.558594 31.542969 85.636719 31.148438 C 86.710938 30.757812 87.785156 30.476562 88.8125 30.359375 C 89.839844 30.25 90.820312 30.320312 91.671875 30.621094 C 92.523438 30.917969 93.238281 31.460938 93.789062 32.15625 C 94.339844 32.84375 94.738281 33.664062 95.03125 34.492188 C 95.324219 35.328125 95.515625 36.175781 95.648438 37 C 95.78125 37.824219 95.863281 38.625 95.910156 39.390625 C 96 40.917969 95.96875 42.300781 95.914062 43.503906 C 95.855469 44.707031 95.769531 45.726562 95.6875 46.558594 C 95.601562 47.386719 95.53125 48.023438 95.472656 48.449219 C 95.421875 48.878906 95.390625 49.097656 95.390625 49.097656 C 95.390625 49.097656 95.445312 48.882812 95.550781 48.464844 C 95.652344 48.042969 95.804688 47.421875 95.976562 46.601562 C 96.148438 45.78125 96.34375 44.769531 96.519531 43.5625 C 96.699219 42.355469 96.863281 40.960938 96.914062 39.375 C 96.9375 38.582031 96.933594 37.742188 96.863281 36.855469 " fill-opacity="1" fill-rule="nonzero"/></g><g clip-path="url(#8cc6cd3883)"><path fill="#0cc0df" d="M 255.867188 30.523438 C 242.515625 31.390625 241.8125 32.09375 240.949219 45.445312 C 240.085938 32.09375 239.382812 31.390625 226.027344 30.523438 C 239.382812 29.660156 240.085938 28.957031 240.949219 15.609375 C 241.8125 28.957031 242.515625 29.660156 255.867188 30.523438 " fill-opacity="1" fill-rule="nonzero"/></g><path fill="#0cc0df" d="M 238.058594 47.625 C 233.359375 47.929688 233.109375 48.175781 232.804688 52.878906 C 232.5 48.175781 232.253906 47.929688 227.550781 47.625 C 232.253906 47.320312 232.5 47.074219 232.804688 42.367188 C 233.109375 47.074219 233.359375 47.320312 238.058594 47.625 " fill-opacity="1" fill-rule="nonzero"/><path fill="#0cc0df" d="M 213.375 34.679688 C 209.652344 34.921875 209.457031 35.117188 209.21875 38.835938 C 208.976562 35.117188 208.78125 34.921875 205.0625 34.679688 C 208.78125 34.441406 208.976562 34.246094 209.21875 30.523438 C 209.457031 34.246094 209.652344 34.441406 213.375 34.679688 " fill-opacity="1" fill-rule="nonzero"/><path fill="#1a477e" d="M 103.769531 63.730469 C 104.273438 63.902344 104.703125 64.222656 105.050781 64.675781 C 105.40625 65.136719 105.585938 65.660156 105.585938 66.242188 C 105.585938 66.835938 105.417969 67.34375 105.085938 67.761719 C 104.761719 68.183594 104.410156 68.46875 104.03125 68.613281 C 104.765625 68.828125 105.292969 69.179688 105.621094 69.671875 C 105.953125 70.164062 106.117188 70.691406 106.117188 71.261719 C 106.117188 71.898438 105.933594 72.503906 105.5625 73.074219 C 105.195312 73.644531 104.703125 74.027344 104.078125 74.226562 C 103.800781 74.3125 103.453125 74.371094 103.035156 74.402344 C 102.613281 74.433594 102.105469 74.449219 101.503906 74.449219 L 96.925781 74.449219 L 96.925781 63.492188 L 101.503906 63.492188 C 102.03125 63.492188 102.472656 63.507812 102.820312 63.539062 C 103.175781 63.5625 103.492188 63.628906 103.769531 63.730469 Z M 103.425781 66.597656 C 103.425781 66.3125 103.355469 66.078125 103.210938 65.886719 C 103.078125 65.699219 102.90625 65.554688 102.691406 65.460938 C 102.492188 65.382812 102.117188 65.339844 101.5625 65.339844 L 99.132812 65.339844 L 99.132812 67.855469 L 101.613281 67.855469 C 102.820312 67.855469 103.425781 67.4375 103.425781 66.597656 Z M 102.667969 72.539062 C 103.003906 72.488281 103.285156 72.34375 103.496094 72.113281 C 103.71875 71.886719 103.828125 71.578125 103.828125 71.199219 C 103.828125 70.773438 103.722656 70.453125 103.507812 70.238281 C 103.296875 70.019531 103.003906 69.878906 102.644531 69.8125 C 102.289062 69.742188 101.816406 69.707031 101.230469 69.707031 L 99.132812 69.707031 L 99.132812 72.601562 L 101.433594 72.601562 C 101.960938 72.601562 102.375 72.582031 102.667969 72.539062 Z M 102.667969 72.539062 " fill-opacity="1" fill-rule="nonzero"/><path fill="#1a477e" d="M 116.105469 65.339844 L 110.175781 65.339844 L 110.175781 67.773438 L 115.691406 67.773438 L 115.691406 69.625 L 110.175781 69.625 L 110.175781 72.601562 L 116.308594 72.601562 L 116.308594 74.449219 L 107.972656 74.449219 L 107.972656 63.492188 L 116.105469 63.492188 Z M 116.105469 65.339844 " fill-opacity="1" fill-rule="nonzero"/><path fill="#1a477e" d="M 125.527344 63.835938 C 125.984375 64.035156 126.363281 64.378906 126.664062 64.867188 C 126.972656 65.359375 127.128906 65.921875 127.128906 66.5625 C 127.128906 67.378906 126.871094 68.066406 126.367188 68.625 C 125.871094 69.179688 125.160156 69.511719 124.234375 69.625 C 124.636719 69.902344 124.941406 70.128906 125.148438 70.3125 C 125.359375 70.484375 125.589844 70.734375 125.835938 71.058594 C 126.085938 71.382812 126.394531 71.839844 126.761719 72.433594 L 128.015625 74.449219 L 125.371094 74.449219 L 123.59375 71.78125 C 123.195312 71.1875 122.886719 70.769531 122.667969 70.523438 C 122.445312 70.273438 122.210938 70.101562 121.96875 70.015625 C 121.722656 69.917969 121.378906 69.871094 120.9375 69.871094 L 120.378906 69.871094 L 120.378906 74.449219 L 118.175781 74.449219 L 118.175781 63.492188 L 122.964844 63.492188 C 123.488281 63.492188 123.957031 63.515625 124.375 63.5625 C 124.804688 63.605469 125.1875 63.691406 125.527344 63.835938 Z M 123.960938 68 C 124.226562 67.921875 124.441406 67.769531 124.601562 67.546875 C 124.769531 67.320312 124.851562 67.039062 124.851562 66.707031 C 124.851562 66.121094 124.601562 65.71875 124.105469 65.496094 C 123.96875 65.433594 123.800781 65.394531 123.605469 65.378906 C 123.414062 65.355469 123.085938 65.339844 122.621094 65.339844 L 120.378906 65.339844 L 120.378906 68.128906 L 122.324219 68.128906 C 123.121094 68.128906 123.667969 68.085938 123.960938 68 Z M 123.960938 68 " fill-opacity="1" fill-rule="nonzero"/><path fill="#1a477e" d="M 134.269531 63.300781 C 135.527344 63.300781 136.558594 63.570312 137.367188 64.097656 C 138.171875 64.617188 138.695312 65.425781 138.941406 66.515625 L 136.738281 66.929688 C 136.570312 66.363281 136.265625 65.933594 135.824219 65.636719 C 135.378906 65.347656 134.867188 65.199219 134.292969 65.199219 C 133.699219 65.199219 133.179688 65.316406 132.726562 65.542969 C 132.277344 65.765625 131.921875 66.089844 131.660156 66.515625 C 131.296875 67.09375 131.117188 67.867188 131.117188 68.839844 C 131.117188 69.996094 131.375 70.933594 131.898438 71.652344 C 132.421875 72.371094 133.207031 72.730469 134.257812 72.730469 C 134.707031 72.730469 135.152344 72.648438 135.597656 72.480469 C 136.050781 72.316406 136.464844 72.089844 136.84375 71.804688 L 136.84375 70.417969 L 134.316406 70.417969 L 134.316406 68.566406 L 139.085938 68.566406 L 139.085938 72.933594 C 138.53125 73.449219 137.820312 73.855469 136.960938 74.164062 C 136.097656 74.472656 135.246094 74.628906 134.402344 74.628906 C 133.171875 74.628906 132.140625 74.375 131.304688 73.867188 C 130.476562 73.355469 129.851562 72.667969 129.441406 71.804688 C 129.039062 70.945312 128.839844 69.988281 128.839844 68.933594 C 128.839844 67.914062 129.035156 66.984375 129.429688 66.136719 C 129.835938 65.28125 130.441406 64.601562 131.257812 64.085938 C 132.070312 63.5625 133.074219 63.300781 134.269531 63.300781 Z M 134.269531 63.300781 " fill-opacity="1" fill-rule="nonzero"/><path fill="#1a477e" d="M 144.949219 63.300781 C 146.164062 63.300781 147.15625 63.574219 147.925781 64.121094 C 148.699219 64.660156 149.105469 65.492188 149.148438 66.621094 L 146.929688 66.71875 C 146.851562 66.203125 146.660156 65.8125 146.359375 65.542969 C 146.058594 65.269531 145.578125 65.128906 144.914062 65.128906 C 144.453125 65.128906 144.03125 65.210938 143.644531 65.378906 C 143.257812 65.539062 143.0625 65.8125 143.0625 66.207031 C 143.0625 66.546875 143.234375 66.816406 143.585938 67.015625 C 143.933594 67.210938 144.550781 67.414062 145.433594 67.617188 C 146.265625 67.816406 146.945312 68.027344 147.476562 68.246094 C 148.011719 68.460938 148.472656 68.8125 148.863281 69.304688 C 149.257812 69.785156 149.457031 70.4375 149.457031 71.261719 C 149.457031 71.679688 149.355469 72.125 149.160156 72.601562 C 148.960938 73.070312 148.644531 73.472656 148.210938 73.808594 C 147.882812 74.070312 147.453125 74.273438 146.917969 74.414062 C 146.378906 74.558594 145.757812 74.628906 145.054688 74.628906 C 143.6875 74.628906 142.636719 74.320312 141.902344 73.703125 C 141.164062 73.085938 140.714844 72.144531 140.550781 70.878906 L 142.695312 70.679688 C 142.933594 72.078125 143.730469 72.777344 145.089844 72.777344 C 145.804688 72.777344 146.339844 72.628906 146.703125 72.328125 C 147.066406 72.027344 147.25 71.671875 147.25 71.261719 C 147.25 70.96875 147.15625 70.734375 146.976562 70.558594 C 146.792969 70.386719 146.515625 70.238281 146.136719 70.109375 C 145.753906 69.984375 145.152344 69.820312 144.332031 69.625 C 143.3125 69.402344 142.496094 69.027344 141.878906 68.496094 C 141.261719 67.96875 140.953125 67.257812 140.953125 66.363281 C 140.953125 65.886719 141.074219 65.417969 141.320312 64.949219 C 141.5625 64.484375 141.984375 64.09375 142.578125 63.777344 C 143.175781 63.460938 143.96875 63.300781 144.949219 63.300781 Z M 144.949219 63.300781 " fill-opacity="1" fill-rule="nonzero"/><path fill="#1a477e" d="M 156.042969 63.300781 C 157.164062 63.300781 158.109375 63.574219 158.886719 64.121094 C 159.660156 64.664062 160.175781 65.464844 160.429688 66.515625 L 158.246094 67.039062 C 158.109375 66.46875 157.839844 66.023438 157.429688 65.699219 C 157.027344 65.367188 156.527344 65.199219 155.933594 65.199219 C 155.070312 65.199219 154.398438 65.503906 153.917969 66.113281 C 153.445312 66.722656 153.207031 67.648438 153.207031 68.886719 C 153.207031 70.035156 153.398438 70.964844 153.789062 71.675781 C 154.183594 72.378906 154.886719 72.730469 155.898438 72.730469 C 156.546875 72.730469 157.066406 72.527344 157.464844 72.125 C 157.859375 71.714844 158.144531 71.148438 158.320312 70.417969 L 160.464844 71.09375 C 160.171875 72.289062 159.628906 73.179688 158.839844 73.761719 C 158.058594 74.339844 157.085938 74.628906 155.921875 74.628906 C 154.925781 74.628906 154.050781 74.398438 153.289062 73.941406 C 152.535156 73.484375 151.957031 72.835938 151.546875 72.007812 C 151.132812 71.171875 150.929688 70.1875 150.929688 69.066406 C 150.929688 68.0625 151.097656 67.125 151.441406 66.253906 C 151.785156 65.378906 152.34375 64.664062 153.113281 64.121094 C 153.878906 63.574219 154.855469 63.300781 156.042969 63.300781 Z M 156.042969 63.300781 " fill-opacity="1" fill-rule="nonzero"/><path fill="#1a477e" d="M 164.570312 67.808594 L 168.910156 67.808594 L 168.910156 63.492188 L 171.105469 63.492188 L 171.105469 74.449219 L 168.910156 74.449219 L 168.910156 69.660156 L 164.570312 69.660156 L 164.570312 74.449219 L 162.363281 74.449219 L 162.363281 63.492188 L 164.570312 63.492188 Z M 164.570312 67.808594 " fill-opacity="1" fill-rule="nonzero"/><path fill="#1a477e" d="M 181.546875 65.339844 L 175.613281 65.339844 L 175.613281 67.773438 L 181.128906 67.773438 L 181.128906 69.625 L 175.613281 69.625 L 175.613281 72.601562 L 181.746094 72.601562 L 181.746094 74.449219 L 173.410156 74.449219 L 173.410156 63.492188 L 181.546875 63.492188 Z M 181.546875 65.339844 " fill-opacity="1" fill-rule="nonzero"/><path fill="#1a477e" d="M 190.265625 70.808594 L 190.265625 63.492188 L 192.316406 63.492188 L 192.316406 74.449219 L 190.085938 74.449219 L 185.6875 67.296875 L 185.6875 74.449219 L 183.636719 74.449219 L 183.636719 63.492188 L 185.769531 63.492188 Z M 190.265625 70.808594 " fill-opacity="1" fill-rule="nonzero"/><path fill="#1a477e" d="M 196.863281 67.808594 L 201.203125 67.808594 L 201.203125 63.492188 L 203.398438 63.492188 L 203.398438 74.449219 L 201.203125 74.449219 L 201.203125 69.660156 L 196.863281 69.660156 L 196.863281 74.449219 L 194.65625 74.449219 L 194.65625 63.492188 L 196.863281 63.492188 Z M 196.863281 67.808594 " fill-opacity="1" fill-rule="nonzero"/><path fill="#1a477e" d="M 210.539062 63.300781 C 211.691406 63.300781 212.664062 63.546875 213.457031 64.039062 C 214.253906 64.53125 214.851562 65.207031 215.246094 66.066406 C 215.648438 66.917969 215.851562 67.890625 215.851562 68.984375 C 215.851562 70.144531 215.636719 71.152344 215.210938 72.007812 C 214.789062 72.855469 214.183594 73.5 213.386719 73.953125 C 212.59375 74.402344 211.65625 74.628906 210.574219 74.628906 C 209.4375 74.628906 208.464844 74.398438 207.667969 73.929688 C 206.867188 73.460938 206.261719 72.808594 205.855469 71.972656 C 205.449219 71.125 205.25 70.144531 205.25 69.03125 C 205.25 67.875 205.449219 66.867188 205.855469 66.007812 C 206.261719 65.144531 206.863281 64.480469 207.65625 64.011719 C 208.445312 63.539062 209.40625 63.300781 210.539062 63.300781 Z M 207.527344 68.972656 C 207.527344 69.824219 207.664062 70.535156 207.941406 71.09375 C 208.21875 71.65625 208.585938 72.070312 209.042969 72.339844 C 209.5 72.601562 210.003906 72.730469 210.550781 72.730469 C 211.0625 72.730469 211.546875 72.617188 211.996094 72.386719 C 212.449219 72.148438 212.820312 71.753906 213.125 71.1875 C 213.421875 70.621094 213.574219 69.871094 213.574219 68.933594 C 213.574219 67.84375 213.332031 66.953125 212.851562 66.253906 C 212.367188 65.550781 211.597656 65.199219 210.539062 65.199219 C 209.484375 65.199219 208.71875 65.550781 208.238281 66.253906 C 207.761719 66.960938 207.527344 67.863281 207.527344 68.972656 Z M 207.527344 68.972656 " fill-opacity="1" fill-rule="nonzero"/><path fill="#1a477e" d="M 225.734375 65.339844 L 219.804688 65.339844 L 219.804688 67.773438 L 225.320312 67.773438 L 225.320312 69.625 L 219.804688 69.625 L 219.804688 72.601562 L 225.9375 72.601562 L 225.9375 74.449219 L 217.601562 74.449219 L 217.601562 63.492188 L 225.734375 63.492188 Z M 225.734375 65.339844 " fill-opacity="1" fill-rule="nonzero"/><path fill="#1a477e" d="M 230.042969 68.355469 L 234.527344 63.492188 L 237.492188 63.492188 L 233.378906 67.761719 L 237.730469 74.449219 L 234.859375 74.449219 L 231.847656 69.304688 L 230.042969 71.140625 L 230.042969 74.449219 L 227.839844 74.449219 L 227.839844 63.492188 L 230.042969 63.492188 Z M 230.042969 68.355469 " fill-opacity="1" fill-rule="nonzero"/><path fill="#27aae1" d="M 103.828125 85.066406 C 104.578125 85.503906 105.144531 86.140625 105.527344 86.976562 C 105.910156 87.808594 106.105469 88.785156 106.105469 89.90625 C 106.105469 90.839844 105.96875 91.710938 105.691406 92.515625 C 105.414062 93.320312 104.996094 93.960938 104.433594 94.425781 C 104.011719 94.773438 103.546875 95.035156 103.035156 95.207031 C 102.527344 95.382812 101.890625 95.46875 101.125 95.46875 L 97.035156 95.46875 L 97.035156 84.511719 L 101.019531 84.511719 C 101.660156 84.511719 102.1875 84.550781 102.609375 84.628906 C 103.035156 84.699219 103.441406 84.847656 103.828125 85.066406 Z M 104.601562 89.894531 C 104.601562 88.78125 104.425781 87.921875 104.078125 87.320312 C 103.730469 86.714844 103.3125 86.308594 102.832031 86.101562 C 102.359375 85.894531 101.757812 85.792969 101.03125 85.792969 L 98.492188 85.792969 L 98.492188 94.1875 L 100.898438 94.1875 C 101.613281 94.1875 102.207031 94.105469 102.691406 93.9375 C 103.179688 93.765625 103.617188 93.363281 104.007812 92.730469 C 104.402344 92.097656 104.601562 91.152344 104.601562 89.894531 Z M 104.601562 89.894531 " fill-opacity="1" fill-rule="nonzero"/><path fill="#27aae1" d="M 116 85.792969 L 109.523438 85.792969 L 109.523438 89.160156 L 115.585938 89.160156 L 115.585938 90.453125 L 109.523438 90.453125 L 109.523438 94.1875 L 116.238281 94.1875 L 116.238281 95.46875 L 108.066406 95.46875 L 108.066406 84.511719 L 116 84.511719 Z M 116 85.792969 " fill-opacity="1" fill-rule="nonzero"/><path fill="#27aae1" d="M 125.515625 93.109375 L 125.515625 84.511719 L 126.902344 84.511719 L 126.902344 95.46875 L 125.421875 95.46875 L 119.65625 86.859375 L 119.65625 95.46875 L 118.269531 95.46875 L 118.269531 84.511719 L 119.75 84.511719 Z M 125.515625 93.109375 " fill-opacity="1" fill-rule="nonzero"/><path fill="#27aae1" d="M 137.140625 85.792969 L 133.511719 85.792969 L 133.511719 95.46875 L 132.050781 95.46875 L 132.050781 85.792969 L 128.433594 85.792969 L 128.433594 84.511719 L 137.140625 84.511719 Z M 137.140625 85.792969 " fill-opacity="1" fill-rule="nonzero"/><path fill="#27aae1" d="M 147.695312 95.46875 L 146.035156 95.46875 L 144.753906 92.136719 L 140.175781 92.136719 L 138.980469 95.46875 L 137.4375 95.46875 L 141.648438 84.511719 L 143.199219 84.511719 Z M 141.800781 87.75 L 140.605469 90.960938 L 144.304688 90.960938 L 142.964844 87.355469 C 142.796875 86.929688 142.609375 86.359375 142.394531 85.648438 C 142.394531 85.707031 142.328125 85.964844 142.203125 86.433594 C 142.085938 86.890625 141.949219 87.332031 141.800781 87.75 Z M 141.800781 87.75 " fill-opacity="1" fill-rule="nonzero"/><path fill="#27aae1" d="M 150.25 94.1875 L 155.65625 94.1875 L 155.65625 95.46875 L 148.800781 95.46875 L 148.800781 84.511719 L 150.25 84.511719 Z M 150.25 94.1875 " fill-opacity="1" fill-rule="nonzero"/><path fill="#27aae1" d="M 168.210938 85.164062 C 168.621094 85.472656 168.90625 85.820312 169.066406 86.207031 C 169.222656 86.585938 169.304688 86.925781 169.304688 87.214844 C 169.304688 88.324219 168.789062 89.128906 167.761719 89.632812 C 168.464844 89.847656 168.984375 90.191406 169.316406 90.664062 C 169.648438 91.132812 169.8125 91.695312 169.8125 92.351562 C 169.8125 92.847656 169.683594 93.355469 169.421875 93.867188 C 169.167969 94.382812 168.726562 94.789062 168.09375 95.089844 C 167.554688 95.34375 166.804688 95.46875 165.839844 95.46875 L 161.546875 95.46875 L 161.546875 84.511719 L 165.757812 84.511719 C 166.367188 84.511719 166.851562 84.566406 167.214844 84.675781 C 167.585938 84.78125 167.917969 84.941406 168.210938 85.164062 Z M 167.867188 87.476562 C 167.867188 86.8125 167.65625 86.367188 167.226562 86.136719 C 166.808594 85.90625 166.171875 85.792969 165.320312 85.792969 L 162.996094 85.792969 L 162.996094 89.113281 L 165.460938 89.113281 C 166.292969 89.113281 166.898438 88.980469 167.289062 88.71875 C 167.671875 88.460938 167.867188 88.042969 167.867188 87.476562 Z M 167.347656 93.925781 C 167.695312 93.753906 167.941406 93.519531 168.082031 93.226562 C 168.230469 92.929688 168.308594 92.621094 168.308594 92.300781 C 168.308594 91.875 168.199219 91.515625 167.988281 91.222656 C 167.773438 90.921875 167.46875 90.707031 167.074219 90.570312 C 166.742188 90.460938 166.269531 90.40625 165.652344 90.40625 L 162.996094 90.40625 L 162.996094 94.1875 L 165.925781 94.1875 C 166.257812 94.1875 166.527344 94.171875 166.742188 94.128906 C 166.960938 94.082031 167.164062 94.015625 167.347656 93.925781 Z M 167.347656 93.925781 " fill-opacity="1" fill-rule="nonzero"/><path fill="#27aae1" d="M 171.976562 93.9375 L 173.503906 93.9375 L 173.503906 95.46875 L 171.976562 95.46875 Z M 171.976562 93.9375 " fill-opacity="1" fill-rule="nonzero"/><path fill="#27aae1" d="M 179.40625 92.5625 C 179.625 93.132812 179.808594 93.699219 179.953125 94.257812 C 180.132812 93.636719 180.332031 93.039062 180.546875 92.46875 L 183.5 84.511719 L 184.980469 84.511719 L 180.699219 95.46875 L 179.191406 95.46875 L 174.960938 84.511719 L 176.535156 84.511719 Z M 179.40625 92.5625 " fill-opacity="1" fill-rule="nonzero"/></svg>